<?xml version="1.0" standalone="no"?><!DOCTYPE svg PUBLIC "-//W3C//DTD SVG 1.1//EN" "http://www.w3.org/Graphics/SVG/1.1/DTD/svg11.dtd"><svg height="1024" legacy-metrics="false" node-id="1" sillyvg="true" template-height="1024" template-width="1024" version="1.1" viewBox="0 0 1024 1024" width="1024" xmlns="http://www.w3.org/2000/svg" xmlns:xlink="http://www.w3.org/1999/xlink"><defs node-id="95"><clipPath id="clip0_1515_111045" node-id="92"><path d="M 0.00 0.00 L 1024.00 0.00 L 1024.00 1024.00 L 0.00 1024.00 Z" fill="#000000" fill-rule="nonzero" node-id="98" stroke="none" target-height="1024" target-width="1024" target-x="0" target-y="0"></path></clipPath><linearGradient gradientUnits="userSpaceOnUse" id="paint0_linear_1515_111045" node-id="35" x1="506" x2="506" y1="635" y2="890"><stop offset="0" stop-color="#bddfff"></stop><stop offset="0.95892" stop-color="#ffffff" stop-opacity="0"></stop></linearGradient><linearGradient gradientUnits="userSpaceOnUse" id="paint1_linear_1515_111045" node-id="38" x1="229.66" x2="229.66" y1="754.678" y2="615.257"><stop offset="0" stop-color="#5fb2ff"></stop><stop offset="0.7893" stop-color="#dff0ff"></stop></linearGradient><linearGradient gradientUnits="userSpaceOnUse" id="paint2_linear_1515_111045" node-id="41" x1="229.661" x2="229.661" y1="630.738" y2="784.347"><stop offset="0" stop-color="#dff0ff"></stop><stop offset="0.818" stop-color="#a2d2ff"></stop></linearGradient><linearGradient gradientUnits="userSpaceOnUse" id="paint3_linear_1515_111045" node-id="44" x1="883.842" x2="847.534" y1="720.042" y2="802.968"><stop offset="0.365159" stop-color="#c4e3ff"></stop><stop offset="1" stop-color="#5fb2ff"></stop></linearGradient><linearGradient gradientUnits="userSpaceOnUse" id="paint4_linear_1515_111045" node-id="47" x1="819.285" x2="808.084" y1="266.823" y2="371.111"><stop offset="0" stop-color="#6cb8ff"></stop><stop offset="1" stop-color="#a2d2ff"></stop></linearGradient><linearGradient gradientUnits="userSpaceOnUse" id="paint5_linear_1515_111045" node-id="50" x1="819.285" x2="808.084" y1="266.823" y2="371.111"><stop offset="0" stop-color="#6cb8ff"></stop><stop offset="1" stop-color="#a2d2ff"></stop></linearGradient><linearGradient gradientUnits="userSpaceOnUse" id="paint6_linear_1515_111045" node-id="53" x1="790.181" x2="795.784" y1="249.857" y2="354.595"><stop offset="0" stop-color="#6cb8ff"></stop><stop offset="1" stop-color="#a2d2ff"></stop></linearGradient><linearGradient gradientUnits="userSpaceOnUse" id="paint7_linear_1515_111045" node-id="56" x1="691.99" x2="742.375" y1="81.7917" y2="173.785"><stop offset="0" stop-color="#6cb8ff"></stop><stop offset="1" stop-color="#a2d2ff"></stop></linearGradient><linearGradient gradientUnits="userSpaceOnUse" id="paint8_linear_1515_111045" node-id="59" x1="433.736" x2="433.736" y1="531.478" y2="553.445"><stop offset="0" stop-color="#ffcda5"></stop><stop offset="1" stop-color="#ffe8d1"></stop></linearGradient><linearGradient gradientUnits="userSpaceOnUse" id="paint9_linear_1515_111045" node-id="62" x1="433.612" x2="462.939" y1="479.418" y2="534.038"><stop offset="0" stop-color="#fff2df"></stop><stop offset="1" stop-color="#fee0bc"></stop></linearGradient><linearGradient gradientUnits="userSpaceOnUse" id="paint10_linear_1515_111045" node-id="65" x1="450.509" x2="407.206" y1="484.167" y2="521.182"><stop offset="0" stop-color="#777ca7"></stop><stop offset="1" stop-color="#636681"></stop></linearGradient><linearGradient gradientUnits="userSpaceOnUse" id="paint11_linear_1515_111045" node-id="68" x1="432.104" x2="436.822" y1="509.597" y2="463.308"><stop offset="0.0403741" stop-color="#646464"></stop><stop offset="1" stop-color="#534f3f"></stop></linearGradient><linearGradient gradientUnits="userSpaceOnUse" id="paint12_linear_1515_111045" node-id="71" x1="513.884" x2="507.952" y1="628.352" y2="643.828"><stop offset="0" stop-color="#fee4c3"></stop><stop offset="1" stop-color="#ffd1ac"></stop></linearGradient><linearGradient gradientUnits="userSpaceOnUse" id="paint13_linear_1515_111045" node-id="74" x1="456.754" x2="508.192" y1="534.017" y2="641.78"><stop offset="0" stop-color="#ffe194"></stop><stop offset="1" stop-color="#ffbf84"></stop></linearGradient><linearGradient gradientUnits="userSpaceOnUse" id="paint14_linear_1515_111045" node-id="77" x1="465.733" x2="402.245" y1="528.8" y2="659.35"><stop offset="0" stop-color="#ffe194"></stop><stop offset="1" stop-color="#ffbf84"></stop></linearGradient><linearGradient gradientUnits="userSpaceOnUse" id="paint15_linear_1515_111045" node-id="80" x1="524.455" x2="505" y1="597.4" y2="645"><stop offset="0" stop-color="#94cbff"></stop><stop offset="1" stop-color="#dceeff"></stop></linearGradient><linearGradient gradientUnits="userSpaceOnUse" id="paint16_linear_1515_111045" node-id="83" x1="54.792206" x2="4.9369206" y1="-0.09341919" y2="0.66947186"><stop offset="0" stop-color="#dceeff"></stop><stop offset="1" stop-color="#94cbff"></stop></linearGradient><linearGradient gradientUnits="userSpaceOnUse" id="paint17_linear_1515_111045" node-id="86" x1="482.74" x2="476.807" y1="631.875" y2="647.351"><stop offset="0" stop-color="#fee4c3"></stop><stop offset="1" stop-color="#ffd1ac"></stop></linearGradient><linearGradient gradientUnits="userSpaceOnUse" id="paint18_linear_1515_111045" node-id="89" x1="467.388" x2="422.816" y1="536.19" y2="649.363"><stop offset="0" stop-color="#ffe194"></stop><stop offset="1" stop-color="#ffbf84"></stop></linearGradient></defs><g clip-path="url(#clip0_1515_111045)" id="sillyvg_g_0" node-id="216"><path d="M 973.00 762.50 C 973.00 796.32 923.80 828.75 836.22 852.66 C 748.64 876.57 629.86 890.00 506.00 890.00 C 382.14 890.00 263.36 876.57 175.78 852.66 C 88.20 828.75 39.00 796.32 39.00 762.50 C 39.00 728.68 88.20 696.25 175.78 672.34 C 263.36 648.43 382.14 635.00 506.00 635.00 C 629.86 635.00 748.64 648.43 836.22 672.34 C 923.80 696.25 973.00 728.68 973.00 762.50 Z" fill="url(#paint0_linear_1515_111045)" fill-rule="nonzero" node-id="218" stroke="none" target-height="255" target-width="934" target-x="39" target-y="635"></path><path d="M 230.46 615.50 C 230.46 615.50 230.23 614.92 229.93 615.54 C 227.18 621.12 202.33 681.57 200.36 728.22 C 200.36 728.22 196.22 755.02 230.97 754.66 C 259.97 754.37 259.20 729.66 259.10 721.34 C 258.70 687.57 230.46 615.50 230.46 615.50 Z" fill="url(#paint1_linear_1515_111045)" fill-rule="nonzero" node-id="220" stroke="none" target-height="139.40588" target-width="58.88333" target-x="200.21567" target-y="615.2591"></path><path d="M 229.66 784.34 C 229.10 784.34 228.65 783.89 228.65 783.33 L 228.65 631.75 C 228.65 631.20 229.10 630.74 229.66 630.74 C 230.22 630.74 230.68 631.20 230.68 631.75 L 230.68 783.33 C 230.68 783.90 230.22 784.34 229.66 784.34 Z" fill="url(#paint2_linear_1515_111045)" fill-rule="nonzero" node-id="222" stroke="none" target-height="153.60602" target-width="2.0329895" target-x="228.647" target-y="630.737"></path><path d="M 869.35 810.66 C 876.54 808.40 883.52 805.45 889.87 797.18 C 891.18 795.48 892.40 793.31 891.69 791.28 C 891.15 789.76 889.59 788.78 888.01 788.53 C 887.42 788.44 886.83 788.43 886.23 788.48 L 886.23 788.48 C 885.32 788.57 884.41 788.75 883.54 789.01 L 883.28 789.09 C 879.09 790.30 875.09 792.13 871.42 794.52 C 871.09 794.74 870.70 794.83 870.31 794.79 C 869.91 794.75 869.55 794.58 869.27 794.30 C 868.98 794.02 868.80 793.65 868.75 793.25 C 868.70 792.86 868.79 792.45 868.99 792.11 C 869.37 791.49 869.80 790.91 870.29 790.38 C 871.01 789.61 871.81 788.92 872.66 788.30 C 873.79 787.46 874.99 786.72 876.17 785.95 C 880.56 783.12 884.72 779.93 888.61 776.42 C 891.38 773.91 894.09 771.13 895.41 767.61 C 896.01 765.99 896.29 764.12 895.57 762.55 C 894.38 759.97 891.00 759.25 888.24 759.78 C 883.40 760.72 879.53 764.32 876.10 767.91 C 873.26 770.89 870.08 774.19 865.99 774.37 C 865.29 774.44 864.59 774.30 863.98 773.96 C 862.81 773.25 862.51 771.59 862.93 770.27 C 863.34 768.95 864.30 767.90 865.23 766.89 C 870.62 761.02 875.93 754.92 879.43 747.73 C 882.93 740.53 884.48 732.04 882.05 724.41 C 881.34 722.18 880.26 720.00 878.59 718.38 C 876.92 716.76 874.58 715.75 872.28 716.06 C 869.15 716.47 866.80 719.15 865.21 721.91 C 859.77 731.40 860.10 743.02 858.57 753.89 C 858.14 756.93 857.51 760.05 855.73 762.56 C 855.56 762.80 855.35 763.00 855.10 763.15 C 853.63 764.01 852.31 762.27 851.76 760.79 C 849.58 754.95 849.04 748.26 845.14 743.43 C 843.65 741.59 841.54 740.05 839.20 740.06 C 836.33 740.08 833.88 742.51 833.04 745.29 C 832.20 748.07 832.71 751.10 833.60 753.86 C 835.26 758.98 838.25 763.58 841.76 767.63 C 843.61 769.76 845.71 771.92 846.26 774.71 C 846.43 775.65 846.36 776.63 846.05 777.54 C 845.75 778.45 845.22 779.27 844.51 779.91 C 844.18 780.20 843.80 780.42 843.39 780.56 C 842.97 780.70 842.53 780.75 842.10 780.71 C 841.16 780.63 840.31 780.14 839.48 779.67 C 839.14 779.47 838.79 779.26 838.45 779.07 C 837.08 778.28 835.71 777.48 834.34 776.69 C 830.85 774.67 826.65 772.61 823.02 774.35 C 821.17 775.24 819.95 776.98 819.38 778.99 C 818.87 780.80 818.87 782.73 819.38 784.55 C 820.46 788.33 827.28 798.85 830.09 801.56 C 833.37 804.73 844.75 818.40 869.35 810.66 Z" fill="url(#paint3_linear_1515_111045)" fill-rule="nonzero" node-id="224" stroke="none" target-height="96.933716" target-width="76.94501" target-x="819.0419" target-y="716.056"></path><path d="M 745.29 275.36 C 759.61 280.30 771.01 286.83 779.49 294.94 C 788.18 303.13 793.78 312.06 796.32 321.73 C 799.05 331.48 798.74 341.19 795.40 350.87 C 791.16 363.17 784.08 372.24 774.17 378.07 C 764.46 383.98 752.63 386.55 738.67 385.80 C 751.90 391.94 761.39 400.74 767.14 412.20 C 772.96 423.46 773.22 436.76 767.93 452.08 C 763.97 463.58 757.29 473.12 747.90 480.72 C 738.58 488.11 727.00 492.58 713.15 494.12 C 699.51 495.73 684.52 493.72 668.18 488.08 C 638.33 477.79 618.49 459.43 608.64 433.02 L 643.02 416.78 C 647.51 426.00 652.43 433.34 657.77 438.79 C 663.38 444.11 670.12 448.13 677.98 450.84 C 687.46 454.11 696.03 454.13 703.68 450.91 C 711.34 447.68 716.77 441.43 719.97 432.15 C 723.59 421.67 723.34 413.23 719.22 406.85 C 715.38 400.33 707.91 395.16 696.82 391.33 L 679.88 385.49 L 696.40 354.29 L 708.19 358.36 C 717.27 361.49 725.23 361.64 732.07 358.81 C 738.91 355.98 743.80 350.33 746.72 341.86 C 749.29 334.40 748.86 327.82 745.41 322.11 C 742.03 316.21 736.10 311.80 727.63 308.87 C 713.32 303.93 697.95 305.29 681.55 312.95 L 666.82 279.09 C 692.51 267.42 718.67 266.18 745.29 275.36 Z" fill="url(#paint4_linear_1515_111045)" fill-rule="nonzero" node-id="226" stroke="none" target-height="225.2709" target-width="189.49182" target-x="608.645" target-y="269.3415"></path><path d="M 745.29 275.36 C 759.61 280.30 771.01 286.83 779.49 294.94 C 788.18 303.13 793.78 312.06 796.32 321.73 C 799.05 331.48 798.74 341.19 795.40 350.87 C 791.16 363.17 784.08 372.24 774.17 378.07 C 764.46 383.98 752.63 386.55 738.67 385.80 C 751.90 391.94 761.39 400.74 767.14 412.20 C 772.96 423.46 773.22 436.76 767.93 452.08 C 763.97 463.58 757.29 473.12 747.90 480.72 C 738.58 488.11 727.00 492.58 713.15 494.12 C 699.51 495.73 684.52 493.72 668.18 488.08 C 638.33 477.79 618.49 459.43 608.64 433.02 L 643.02 416.78 C 647.51 426.00 652.43 433.34 657.77 438.79 C 663.38 444.11 670.12 448.13 677.98 450.84 C 687.46 454.11 696.03 454.13 703.68 450.91 C 711.34 447.68 716.77 441.43 719.97 432.15 C 723.59 421.67 723.34 413.23 719.22 406.85 C 715.38 400.33 707.91 395.16 696.82 391.33 L 679.88 385.49 L 696.40 354.29 L 708.19 358.36 C 717.27 361.49 725.23 361.64 732.07 358.81 C 738.91 355.98 743.80 350.33 746.72 341.86 C 749.29 334.40 748.86 327.82 745.41 322.11 C 742.03 316.21 736.10 311.80 727.63 308.87 C 713.32 303.93 697.95 305.29 681.55 312.95 L 666.82 279.09 C 692.51 267.42 718.67 266.18 745.29 275.36 Z" fill="url(#paint5_linear_1515_111045)" fill-rule="nonzero" node-id="228" stroke="none" target-height="225.2709" target-width="189.49182" target-x="608.645" target-y="269.3415"></path><path d="M 538.41 238.86 C 564.47 243.38 582.67 256.39 593.02 277.89 C 603.57 299.43 605.73 328.17 599.50 364.11 C 593.30 399.84 581.59 426.17 564.36 443.11 C 547.34 460.07 525.80 466.30 499.74 461.78 C 473.68 457.25 455.38 444.12 444.87 422.38 C 434.56 400.67 432.50 371.95 438.70 336.22 C 444.94 300.27 456.54 273.92 473.52 257.16 C 490.71 240.44 512.34 234.34 538.41 238.86 Z M 532.01 275.75 C 524.86 274.51 518.78 275.84 513.78 279.74 C 508.77 283.63 504.29 290.76 500.33 301.11 C 496.58 311.50 493.06 326.16 489.78 345.08 C 486.50 363.99 484.85 379.08 484.85 390.34 C 485.09 401.42 486.91 409.64 490.32 415.00 C 493.72 420.35 498.99 423.65 506.14 424.89 C 513.28 426.13 519.34 424.90 524.31 421.22 C 529.32 417.32 533.70 410.18 537.45 399.79 C 541.45 389.22 545.10 374.38 548.42 355.25 C 551.74 336.12 553.28 321.01 553.04 309.93 C 553.04 298.67 551.32 290.47 547.88 285.33 C 544.45 280.19 539.15 276.99 532.01 275.75 Z" fill="url(#paint6_linear_1515_111045)" fill-rule="nonzero" node-id="230" stroke="none" target-height="225.75018" target-width="167.64352" target-x="435.27432" target-y="237.43823"></path><path d="M 385.19 343.79 L 395.48 380.12 L 372.07 386.75 L 384.80 431.70 L 337.38 445.13 L 324.35 400.26 L 236.60 425.10 L 227.45 392.77 L 248.04 239.94 L 293.65 243.66 L 276.50 374.56 L 314.68 363.75 L 305.97 313.01 L 347.84 301.15 L 361.79 350.42 L 385.19 343.79 Z" fill="url(#paint7_linear_1515_111045)" fill-rule="nonzero" node-id="232" stroke="none" target-height="205.181" target-width="168.029" target-x="227.447" target-y="239.945"></path><path d="M 314.00 617.18 L 525.77 740.67 L 525.77 802.97 L 314.00 679.51 L 314.00 617.21 L 314.00 617.18 Z" fill="#b8d9f6" fill-rule="nonzero" node-id="234" stroke="none" target-height="185.78601" target-width="211.76898" target-x="314" target-y="617.18"></path><path d="M 332.16 645.70 L 467.96 725.30 L 467.96 735.37 L 332.16 655.77 L 332.16 645.73 L 332.16 645.70 Z M 332.16 666.53 L 467.96 746.14 L 467.96 756.21 L 332.16 676.61 L 332.16 666.57 L 332.16 666.53 Z M 480.51 731.88 L 505.50 746.86 L 505.50 775.03 L 480.51 760.08 L 480.51 732.05 L 480.51 731.88 Z" fill="#5ca8ea" fill-rule="nonzero" node-id="236" stroke="none" target-height="129.33698" target-width="173.332" target-x="332.163" target-y="645.698"></path><path d="M 710.27 633.69 L 525.77 740.67 L 525.77 802.97 L 710.27 695.19 L 710.27 633.69 Z" fill="#99c9f2" fill-rule="nonzero" node-id="238" stroke="none" target-height="169.27704" target-width="184.50604" target-x="525.769" target-y="633.688"></path><path d="M 710.27 633.69 L 497.37 512.00 L 314.00 617.18 L 525.77 740.42 L 710.27 633.69 Z" fill="#e0effb" fill-rule="nonzero" node-id="240" stroke="none" target-height="228.42499" target-width="396.27502" target-x="314" target-y="512"></path><path d="M 491.00 820.50 C 491.00 829.06 465.70 836.00 434.50 836.00 C 403.30 836.00 378.00 829.06 378.00 820.50 C 378.00 811.94 403.30 805.00 434.50 805.00 C 465.70 805.00 491.00 811.94 491.00 820.50 Z" fill="#7d7d7d" fill-opacity="0.1" fill-rule="nonzero" node-id="242" stroke="none" target-height="31" target-width="113" target-x="378" target-y="805"></path><path d="M 446.35 528.22 L 421.12 528.22 L 421.12 553.45 L 446.35 553.45 L 446.35 528.22 Z" fill="url(#paint8_linear_1515_111045)" fill-rule="nonzero" node-id="244" stroke="none" target-height="25.22699" target-width="25.22699" target-x="421.122" target-y="528.218"></path><path d="M 437.46 537.32 C 451.28 537.32 462.48 524.36 462.48 508.37 C 462.48 492.38 451.28 479.42 437.46 479.42 C 423.64 479.42 412.44 492.38 412.44 508.37 C 414.30 523.51 423.64 537.32 437.46 537.32 Z" fill="url(#paint9_linear_1515_111045)" fill-rule="nonzero" node-id="246" stroke="none" target-height="57.89798" target-width="50.04001" target-x="412.438" target-y="479.418"></path><path d="M 438.55 506.00 C 437.42 506.77 436.41 507.57 435.57 508.41 C 435.41 508.24 435.21 508.02 434.98 507.77 C 432.81 505.39 428.02 500.15 423.24 506.62 C 419.71 515.57 425.68 521.65 428.98 520.62 C 420.50 528.06 414.92 521.44 414.92 521.44 C 414.92 521.44 414.30 520.82 412.44 519.17 C 412.19 518.95 411.93 518.72 411.67 518.49 C 403.77 511.51 387.55 497.19 404.78 476.86 C 404.82 476.85 404.92 476.76 405.08 476.62 C 407.74 474.34 427.32 457.56 451.25 473.63 C 453.14 475.13 454.83 476.76 456.21 478.51 C 463.67 486.31 463.22 499.35 462.01 500.65 C 461.47 501.23 460.05 501.27 457.92 501.32 C 453.76 501.44 446.88 501.62 438.55 506.00 Z" fill="url(#paint10_linear_1515_111045)" fill-rule="evenodd" node-id="248" stroke="none" target-height="57.401306" target-width="65.53558" target-x="397.14536" target-y="466.7459"></path><path d="M 441.83 500.06 C 439.52 500.88 436.60 501.87 432.72 503.13 C 423.17 506.26 420.58 507.54 418.52 508.55 C 416.29 509.66 414.69 510.44 405.41 512.97 C 397.76 504.90 386.59 488.98 409.96 470.58 C 434.39 456.39 450.34 467.79 458.52 480.06 C 470.45 477.41 479.89 477.60 480.84 480.83 C 481.96 484.67 460.33 494.71 445.31 499.11 C 444.07 499.48 442.91 499.79 441.83 500.06 Z" fill="url(#paint11_linear_1515_111045)" fill-rule="evenodd" node-id="250" stroke="none" target-height="48.936157" target-width="84.88721" target-x="395.9508" target-y="464.02985"></path><path d="M 422.78 515.03 C 421.23 511.49 422.56 505.14 425.86 503.70 C 429.16 502.26 432.81 504.67 434.36 508.21 C 435.90 511.75 434.75 515.09 431.45 516.53 C 428.15 517.97 424.32 518.57 422.78 515.03 Z" fill="#ffe9cd" fill-rule="nonzero" node-id="252" stroke="none" target-height="14.354553" target-width="12.865204" target-x="422.15622" target-y="503.29016"></path><path d="M 399.87 801.18 L 410.29 803.01 L 407.84 816.90 L 397.43 815.06 Z" fill="#fee4c3" fill-rule="nonzero" node-id="254" stroke-linecap="butt" stroke-width="0.99999994" target-height="15.719116" target-width="12.860321" target-x="397.42603" target-y="801.177"></path><path d="M 424.84 821.53 C 424.84 826.39 418.95 826.81 411.15 826.81 C 403.35 826.81 395.01 826.81 393.25 821.53 C 393.33 821.76 391.48 818.02 396.78 812.75 C 396.78 812.75 402.08 816.26 409.14 812.75 C 416.03 814.10 424.84 817.92 424.84 821.53 Z" fill="#7b7b7b" fill-rule="nonzero" node-id="256" stroke="none" target-height="14.061035" target-width="31.822449" target-x="393.02155" target-y="812.746"></path><path d="M 452.89 801.10 L 463.29 802.99 L 460.78 816.86 L 450.38 814.98 Z" fill="#fee4c3" fill-rule="nonzero" node-id="258" stroke-linecap="butt" stroke-width="0.99999994" target-height="15.754456" target-width="12.91394" target-x="450.3771" target-y="801.103"></path><path d="M 477.93 821.40 C 477.90 826.27 472.02 826.66 464.24 826.63 C 456.45 826.60 448.13 826.56 446.39 821.26 C 446.47 821.50 444.65 817.73 449.96 812.47 C 449.96 812.47 455.23 816.02 462.29 812.52 C 469.16 813.91 477.94 817.78 477.93 821.40 Z" fill="#7b7b7b" fill-rule="nonzero" node-id="260" stroke="none" target-height="14.161011" target-width="31.751495" target-x="446.1735" target-y="812.469"></path><path d="M 421.37 646.08 C 412.61 646.11 405.61 646.99 405.61 646.99 C 405.61 646.99 408.06 673.10 406.11 701.58 C 402.90 748.24 394.65 806.62 394.65 806.62 L 412.08 806.62 C 412.08 806.62 440.71 727.74 440.41 676.28 C 450.78 719.63 449.45 807.37 449.45 807.37 L 467.78 805.86 C 467.78 805.86 474.24 752.73 475.84 710.03 C 477.13 675.43 473.62 649.54 473.62 649.54 C 464.65 648.53 455.57 648.45 446.57 649.27 C 446.55 649.28 446.52 649.28 446.50 649.28 C 442.53 648.20 437.56 647.09 432.49 646.58 C 429.03 646.23 425.52 646.09 422.23 646.08 L 421.37 646.08 Z" fill="#dcdcdc" fill-rule="nonzero" node-id="262" stroke="none" target-height="161.28802" target-width="81.46326" target-x="394.654" target-y="646.082"></path><path d="M 518.40 643.40 C 516.63 646.93 512.78 645.68 506.83 643.40 C 500.89 641.12 495.00 637.77 496.63 633.50 C 498.27 629.24 505.41 627.62 511.35 629.90 C 525.45 627.53 530.73 641.63 518.40 643.40 Z" fill="url(#paint12_linear_1515_111045)" fill-rule="nonzero" node-id="264" stroke="none" target-height="16.707642" target-width="28.936615" target-x="496.36813" target-y="628.8747"></path><path d="M 446.35 542.69 C 446.35 542.69 458.47 547.21 463.56 555.56 C 471.93 569.32 476.74 592.84 476.74 592.84 C 476.74 592.84 477.13 599.99 482.65 610.14 C 488.65 621.18 490.82 622.57 490.82 622.57 C 490.82 622.57 499.40 628.28 501.74 628.78 C 504.58 629.38 511.28 632.33 511.28 632.33 L 506.73 646.08 C 506.73 646.08 488.04 644.38 474.92 638.54 C 465.12 634.17 461.29 622.56 461.29 622.56 L 446.35 542.69 Z" fill="url(#paint13_linear_1515_111045)" fill-rule="evenodd" node-id="266" stroke="none" target-height="103.38995" target-width="64.92801" target-x="446.349" target-y="542.692"></path><path d="M 446.32 541.15 C 436.44 552.44 425.74 544.68 421.62 539.38 C 421.03 539.38 416.68 541.43 411.03 548.20 C 402.21 558.79 401.03 627.58 400.44 662.86 C 427.50 665.21 480.91 668.15 478.08 661.10 C 474.56 652.28 471.03 594.07 469.26 576.43 C 468.56 569.41 460.44 546.44 446.32 541.15 Z" fill="url(#paint14_linear_1515_111045)" fill-rule="nonzero" node-id="268" stroke="none" target-height="126.12207" target-width="77.71057" target-x="400.443" target-y="539.384"></path><path d="M 449.66 542.90 C 449.66 542.90 447.89 541.17 446.12 541.17 C 436.59 550.50 425.80 544.02 421.35 539.44 C 421.19 539.26 419.58 539.44 417.81 541.17 C 433.38 555.03 445.53 548.10 449.66 542.90 Z" fill="#fb955b" fill-rule="nonzero" node-id="270" stroke="none" target-height="9.933777" target-width="31.844025" target-x="417.813" target-y="539.3804"></path><path d="M 564.21 595.63 L 498.83 599.17 L 497.88 602.72 L 486.46 645.25 L 550.08 639.94 L 564.21 595.63 Z" fill="url(#paint15_linear_1515_111045)" fill-rule="nonzero" node-id="272" stroke="none" target-height="49.627014" target-width="77.74902" target-x="486.464" target-y="595.628"></path><path d="M 462.11 644.08 L 549.77 637.46 L 549.88 637.55 L 550.14 640.18 L 550.05 640.29 L 462.39 646.91 L 462.28 646.82 L 462.02 644.19 L 462.11 644.08 Z" fill="url(#paint16_linear_1515_111045)" fill-rule="nonzero" node-id="274" stroke-linecap="butt" stroke-width="0.9999998" target-height="9.450317" target-width="88.124756" target-x="462.01807" target-y="637.46063"></path><path d="M 487.25 646.92 C 485.49 650.45 481.63 649.20 475.69 646.92 C 469.75 644.64 463.85 641.29 465.49 637.03 C 467.13 632.76 474.26 631.15 480.20 633.42 C 494.30 631.06 499.59 645.16 487.25 646.92 Z" fill="url(#paint17_linear_1515_111045)" fill-rule="nonzero" node-id="276" stroke="none" target-height="16.707397" target-width="28.937012" target-x="465.22314" target-y="632.3972"></path><path d="M 402.10 583.51 C 402.10 571.89 407.93 548.28 414.95 544.76 C 428.98 546.52 436.64 565.50 437.75 579.98 C 439.50 602.88 444.77 602.88 450.03 613.45 C 454.24 621.90 472.83 631.06 479.85 632.82 C 479.85 633.41 478.80 637.05 474.59 646.91 C 467.57 645.15 453.54 643.39 434.24 632.82 C 414.95 622.25 402.10 595.83 402.10 583.51 Z" fill="url(#paint18_linear_1515_111045)" fill-rule="nonzero" node-id="278" stroke="none" target-height="102.14899" target-width="77.74899" target-x="402.099" target-y="544.761"></path></g></svg>