<?xml version="1.0" standalone="no"?><!DOCTYPE svg PUBLIC "-//W3C//DTD SVG 1.1//EN" "http://www.w3.org/Graphics/SVG/1.1/DTD/svg11.dtd"><svg height="1024" legacy-metrics="false" node-id="1" sillyvg="true" template-height="1024" template-width="1024" version="1.1" viewBox="0 0 1024 1024" width="1024" xmlns="http://www.w3.org/2000/svg" xmlns:xlink="http://www.w3.org/1999/xlink"><defs node-id="76"><clipPath id="clip0_1515_110877" node-id="73"><path d="M 0.00 0.00 L 1024.00 0.00 L 1024.00 1024.00 L 0.00 1024.00 Z" fill="#000000" fill-rule="nonzero" node-id="79" stroke="none" target-height="1024" target-width="1024" target-x="0" target-y="0"></path></clipPath><linearGradient gradientUnits="userSpaceOnUse" id="paint0_linear_1515_110877" node-id="31" x1="506" x2="506" y1="635" y2="890"><stop offset="0" stop-color="#bddfff"></stop><stop offset="0.95892" stop-color="#ffffff" stop-opacity="0"></stop></linearGradient><linearGradient gradientUnits="userSpaceOnUse" id="paint1_linear_1515_110877" node-id="34" x1="229.66" x2="229.66" y1="754.678" y2="615.257"><stop offset="0" stop-color="#5fb2ff"></stop><stop offset="0.7893" stop-color="#dff0ff"></stop></linearGradient><linearGradient gradientUnits="userSpaceOnUse" id="paint2_linear_1515_110877" node-id="37" x1="229.661" x2="229.661" y1="630.738" y2="784.347"><stop offset="0" stop-color="#dff0ff"></stop><stop offset="0.818" stop-color="#a2d2ff"></stop></linearGradient><linearGradient gradientUnits="userSpaceOnUse" id="paint3_linear_1515_110877" node-id="40" x1="883.842" x2="847.534" y1="720.042" y2="802.968"><stop offset="0.365159" stop-color="#c4e3ff"></stop><stop offset="1" stop-color="#5fb2ff"></stop></linearGradient><linearGradient gradientUnits="userSpaceOnUse" id="paint4_linear_1515_110877" node-id="43" x1="691.606" x2="742.451" y1="62.4854" y2="154.407"><stop offset="0" stop-color="#6cb8ff"></stop><stop offset="1" stop-color="#a2d2ff"></stop></linearGradient><linearGradient gradientUnits="userSpaceOnUse" id="paint5_linear_1515_110877" node-id="46" x1="817.819" x2="820.492" y1="231.286" y2="336.299"><stop offset="0" stop-color="#6cb8ff"></stop><stop offset="1" stop-color="#a2d2ff"></stop></linearGradient><linearGradient gradientUnits="userSpaceOnUse" id="paint6_linear_1515_110877" node-id="49" x1="820.15" x2="819.109" y1="290.243" y2="395.285"><stop offset="0" stop-color="#6cb8ff"></stop><stop offset="1" stop-color="#a2d2ff"></stop></linearGradient><linearGradient gradientUnits="userSpaceOnUse" id="paint7_linear_1515_110877" node-id="52" x1="455.54" x2="455.54" y1="494.302" y2="517.454"><stop offset="0" stop-color="#ffcda5"></stop><stop offset="1" stop-color="#ffe8d1"></stop></linearGradient><linearGradient gradientUnits="userSpaceOnUse" id="paint8_linear_1515_110877" node-id="55" x1="454.958" x2="485.08" y1="441.067" y2="497.231"><stop offset="0" stop-color="#fff2df"></stop><stop offset="1" stop-color="#fee0bc"></stop></linearGradient><linearGradient gradientUnits="userSpaceOnUse" id="paint9_linear_1515_110877" node-id="58" x1="473.385" x2="424.514" y1="447.785" y2="486.775"><stop offset="0" stop-color="#777ca7"></stop><stop offset="1" stop-color="#636681"></stop></linearGradient><linearGradient gradientUnits="userSpaceOnUse" id="paint10_linear_1515_110877" node-id="61" x1="483.439" x2="496.81" y1="471.782" y2="461.107"><stop offset="0" stop-color="#fee4c3"></stop><stop offset="1" stop-color="#ffd1ac"></stop></linearGradient><linearGradient gradientUnits="userSpaceOnUse" id="paint11_linear_1515_110877" node-id="64" x1="403.547" x2="386.95" y1="619.109" y2="614.954"><stop offset="0" stop-color="#fee4c3"></stop><stop offset="1" stop-color="#ffd1ac"></stop></linearGradient><linearGradient gradientUnits="userSpaceOnUse" id="paint12_linear_1515_110877" node-id="67" x1="508.79" x2="444.225" y1="452.554" y2="643.6"><stop offset="0" stop-color="#ffe194"></stop><stop offset="1" stop-color="#ffbf84"></stop></linearGradient><linearGradient gradientUnits="userSpaceOnUse" id="paint13_linear_1515_110877" node-id="70" x1="390.285" x2="385.202" y1="476.52" y2="508.233"><stop offset="0" stop-color="#6cb8ff"></stop><stop offset="0.656831" stop-color="#8fc8ff"></stop></linearGradient></defs><g clip-path="url(#clip0_1515_110877)" id="sillyvg_g_0" node-id="167"><path d="M 973.00 762.50 C 973.00 796.32 923.80 828.75 836.22 852.66 C 748.64 876.57 629.86 890.00 506.00 890.00 C 382.14 890.00 263.36 876.57 175.78 852.66 C 88.20 828.75 39.00 796.32 39.00 762.50 C 39.00 728.68 88.20 696.25 175.78 672.34 C 263.36 648.43 382.14 635.00 506.00 635.00 C 629.86 635.00 748.64 648.43 836.22 672.34 C 923.80 696.25 973.00 728.68 973.00 762.50 Z" fill="url(#paint0_linear_1515_110877)" fill-rule="nonzero" node-id="169" stroke="none" target-height="255" target-width="934" target-x="39" target-y="635"></path><path d="M 230.46 615.50 C 230.46 615.50 230.23 614.92 229.93 615.54 C 227.18 621.12 202.33 681.57 200.36 728.22 C 200.36 728.22 196.22 755.02 230.97 754.66 C 259.97 754.37 259.20 729.66 259.10 721.34 C 258.70 687.57 230.46 615.50 230.46 615.50 Z" fill="url(#paint1_linear_1515_110877)" fill-rule="nonzero" node-id="171" stroke="none" target-height="139.40588" target-width="58.88333" target-x="200.21567" target-y="615.2591"></path><path d="M 229.66 784.34 C 229.10 784.34 228.65 783.89 228.65 783.33 L 228.65 631.75 C 228.65 631.20 229.10 630.74 229.66 630.74 C 230.22 630.74 230.68 631.20 230.68 631.75 L 230.68 783.33 C 230.68 783.90 230.22 784.34 229.66 784.34 Z" fill="url(#paint2_linear_1515_110877)" fill-rule="nonzero" node-id="173" stroke="none" target-height="153.60602" target-width="2.0329895" target-x="228.647" target-y="630.737"></path><path d="M 869.35 810.66 C 876.54 808.40 883.52 805.45 889.87 797.18 C 891.18 795.48 892.40 793.31 891.69 791.28 C 891.15 789.76 889.59 788.78 888.01 788.53 C 887.42 788.44 886.83 788.43 886.23 788.48 L 886.23 788.48 C 885.32 788.57 884.41 788.75 883.54 789.01 L 883.28 789.09 C 879.09 790.30 875.09 792.13 871.42 794.52 C 871.09 794.74 870.70 794.83 870.31 794.79 C 869.91 794.75 869.55 794.58 869.27 794.30 C 868.98 794.02 868.80 793.65 868.75 793.25 C 868.70 792.86 868.79 792.45 868.99 792.11 C 869.37 791.49 869.80 790.91 870.29 790.38 C 871.01 789.61 871.81 788.92 872.66 788.30 C 873.79 787.46 874.99 786.72 876.17 785.95 C 880.56 783.12 884.72 779.93 888.61 776.42 C 891.38 773.91 894.09 771.13 895.41 767.61 C 896.01 765.99 896.29 764.12 895.57 762.55 C 894.38 759.97 891.00 759.25 888.24 759.78 C 883.40 760.72 879.53 764.32 876.10 767.91 C 873.26 770.89 870.08 774.19 865.99 774.37 C 865.29 774.44 864.59 774.30 863.98 773.96 C 862.81 773.25 862.51 771.59 862.93 770.27 C 863.34 768.95 864.30 767.90 865.23 766.89 C 870.62 761.02 875.93 754.92 879.43 747.73 C 882.93 740.53 884.48 732.04 882.05 724.41 C 881.34 722.18 880.26 720.00 878.59 718.38 C 876.92 716.76 874.58 715.75 872.28 716.06 C 869.15 716.47 866.80 719.15 865.21 721.91 C 859.77 731.40 860.10 743.02 858.57 753.89 C 858.14 756.93 857.51 760.05 855.73 762.56 C 855.56 762.80 855.35 763.00 855.10 763.15 C 853.63 764.01 852.31 762.27 851.76 760.79 C 849.58 754.95 849.04 748.26 845.14 743.43 C 843.65 741.59 841.54 740.05 839.20 740.06 C 836.33 740.08 833.88 742.51 833.04 745.29 C 832.20 748.07 832.71 751.10 833.60 753.86 C 835.26 758.98 838.25 763.58 841.76 767.63 C 843.61 769.76 845.71 771.92 846.26 774.71 C 846.43 775.65 846.36 776.63 846.05 777.54 C 845.75 778.45 845.22 779.27 844.51 779.91 C 844.18 780.20 843.80 780.42 843.39 780.56 C 842.97 780.70 842.53 780.75 842.10 780.71 C 841.16 780.63 840.31 780.14 839.48 779.67 C 839.14 779.47 838.79 779.26 838.45 779.07 C 837.08 778.28 835.71 777.48 834.34 776.69 C 830.85 774.67 826.65 772.61 823.02 774.35 C 821.17 775.24 819.95 776.98 819.38 778.99 C 818.87 780.80 818.87 782.73 819.38 784.55 C 820.46 788.33 827.28 798.85 830.09 801.56 C 833.37 804.73 844.75 818.40 869.35 810.66 Z" fill="url(#paint3_linear_1515_110877)" fill-rule="nonzero" node-id="175" stroke="none" target-height="96.933716" target-width="76.94501" target-x="819.0419" target-y="716.056"></path><path d="M 371.21 332.67 L 381.89 368.89 L 358.56 375.77 L 371.78 420.58 L 324.51 434.52 L 310.99 389.80 L 223.51 415.60 L 214.01 383.37 L 232.93 230.33 L 278.58 233.54 L 262.86 364.63 L 300.92 353.40 L 291.66 302.75 L 333.40 290.44 L 347.88 339.55 L 371.21 332.67 Z" fill="url(#paint4_linear_1515_110877)" fill-rule="nonzero" node-id="177" stroke="none" target-height="204.194" target-width="167.88002" target-x="214.01" target-y="230.328"></path><path d="M 549.48 211.65 C 575.44 216.73 593.37 230.12 603.25 251.83 C 613.35 273.58 614.90 302.36 607.90 338.17 C 600.94 373.76 588.67 399.84 571.09 416.40 C 553.72 433.00 532.05 438.76 506.08 433.69 C 480.12 428.62 462.12 415.10 452.06 393.14 C 442.22 371.21 440.77 342.46 447.73 306.86 C 454.73 271.06 466.89 244.96 484.22 228.57 C 501.77 212.22 523.52 206.58 549.48 211.65 Z M 542.30 248.40 C 535.18 247.00 529.08 248.20 523.99 251.99 C 518.90 255.78 514.27 262.81 510.09 273.08 C 506.12 283.39 502.29 297.96 498.61 316.81 C 494.92 335.65 492.96 350.70 492.72 361.95 C 492.72 373.04 494.37 381.30 497.66 386.72 C 500.94 392.15 506.15 395.56 513.27 396.95 C 520.38 398.34 526.47 397.24 531.51 393.67 C 536.60 389.88 541.13 382.83 545.10 372.52 C 549.33 362.04 553.30 347.27 557.02 328.22 C 560.75 309.17 562.60 294.10 562.60 283.01 C 562.84 271.76 561.30 263.52 557.97 258.31 C 554.64 253.09 549.42 249.79 542.30 248.40 Z" fill="url(#paint5_linear_1515_110877)" fill-rule="nonzero" node-id="179" stroke="none" target-height="225.49408" target-width="168.7742" target-x="443.4127" target-y="209.91364"></path><path d="M 797.96 458.10 L 789.41 494.88 L 765.72 489.37 L 755.14 534.88 L 707.14 523.72 L 717.41 478.14 L 628.58 457.50 L 636.18 424.77 L 728.05 300.91 L 766.19 326.20 L 687.93 432.52 L 726.58 441.51 L 743.47 392.87 L 785.86 402.72 L 774.27 452.59 L 797.96 458.10 Z" fill="url(#paint6_linear_1515_110877)" fill-rule="nonzero" node-id="181" stroke="none" target-height="233.969" target-width="169.38098" target-x="628.577" target-y="300.909"></path><path d="M 314.00 617.18 L 525.77 740.67 L 525.77 802.97 L 314.00 679.51 L 314.00 617.21 L 314.00 617.18 Z" fill="#b8d9f6" fill-rule="nonzero" node-id="183" stroke="none" target-height="185.78601" target-width="211.76898" target-x="314" target-y="617.18"></path><path d="M 332.16 645.70 L 467.96 725.30 L 467.96 735.37 L 332.16 655.77 L 332.16 645.73 L 332.16 645.70 Z M 332.16 666.53 L 467.96 746.14 L 467.96 756.21 L 332.16 676.61 L 332.16 666.57 L 332.16 666.53 Z M 480.51 731.88 L 505.50 746.86 L 505.50 775.03 L 480.51 760.08 L 480.51 732.05 L 480.51 731.88 Z" fill="#5ca8ea" fill-rule="nonzero" node-id="185" stroke="none" target-height="129.33698" target-width="173.332" target-x="332.163" target-y="645.698"></path><path d="M 710.27 633.69 L 525.77 740.67 L 525.77 802.97 L 710.27 695.19 L 710.27 633.69 Z" fill="#99c9f2" fill-rule="nonzero" node-id="187" stroke="none" target-height="169.27704" target-width="184.50604" target-x="525.769" target-y="633.688"></path><path d="M 710.27 633.69 L 497.37 512.00 L 314.00 617.18 L 525.77 740.42 L 710.27 633.69 Z" fill="#e0effb" fill-rule="nonzero" node-id="189" stroke="none" target-height="228.42499" target-width="396.27502" target-x="314" target-y="512"></path><path d="M 515.00 795.50 C 515.00 804.06 489.70 811.00 458.50 811.00 C 427.30 811.00 402.00 804.06 402.00 795.50 C 402.00 786.94 427.30 780.00 458.50 780.00 C 489.70 780.00 515.00 786.94 515.00 795.50 Z" fill="#7d7d7d" fill-opacity="0.1" fill-rule="nonzero" node-id="191" stroke="none" target-height="31" target-width="113" target-x="402" target-y="780"></path><path d="M 468.20 490.87 L 442.88 490.87 L 442.88 517.45 L 468.20 517.45 L 468.20 490.87 Z" fill="url(#paint7_linear_1515_110877)" fill-rule="nonzero" node-id="193" stroke="none" target-height="26.587982" target-width="25.321014" target-x="442.879" target-y="490.866"></path><path d="M 458.92 500.57 C 473.13 500.57 484.66 487.25 484.66 470.82 C 484.66 454.39 473.13 441.07 458.92 441.07 C 444.70 441.07 433.17 454.39 433.17 470.82 C 433.17 487.25 444.70 500.57 458.92 500.57 Z" fill="url(#paint8_linear_1515_110877)" fill-rule="nonzero" node-id="195" stroke="none" target-height="59.505005" target-width="51.487" target-x="433.172" target-y="441.067"></path><path d="M 482.21 445.06 C 484.47 449.33 486.40 455.33 486.40 462.87 C 486.40 464.45 485.72 464.66 484.48 465.04 C 482.86 465.54 480.29 466.34 477.05 470.88 C 476.88 470.70 476.67 470.48 476.44 470.22 C 474.19 467.76 469.25 462.34 464.32 469.03 C 460.68 478.27 469.23 484.75 472.64 483.68 L 472.61 483.71 C 469.33 487.60 468.29 488.84 461.92 491.51 C 461.92 491.51 450.81 496.05 439.52 491.43 C 436.45 490.71 433.07 489.44 428.93 487.19 C 420.95 479.57 407.18 460.00 425.57 438.31 C 425.60 438.29 425.70 438.20 425.87 438.06 C 428.62 435.71 448.84 418.38 473.54 434.97 C 474.98 436.12 476.31 437.34 477.48 438.63 C 478.54 439.59 479.85 441.12 481.13 443.18 C 481.52 443.79 481.88 444.42 482.21 445.06 Z" fill="url(#paint9_linear_1515_110877)" fill-rule="evenodd" node-id="197" stroke="none" target-height="65.61911" target-width="69.92334" target-x="416.47565" target-y="427.86478"></path><path d="M 486.44 453.13 C 473.05 461.42 470.37 463.37 453.67 474.61 C 428.15 491.79 425.64 489.87 419.66 480.18 C 409.48 460.65 416.77 439.87 434.44 430.67 C 452.11 421.46 475.44 425.41 486.44 453.13 Z" fill="#585449" fill-rule="nonzero" node-id="199" stroke="none" target-height="61.315796" target-width="71.39096" target-x="415.04504" target-y="426.20413"></path><path d="M 503.11 436.30 L 503.32 437.18 L 503.18 438.26 L 502.58 439.64 L 501.34 441.41 L 499.47 443.46 L 496.88 445.80 L 493.41 448.48 L 487.83 452.17 L 481.01 455.99 L 473.94 459.32 L 467.69 461.70 L 463.49 462.96 L 460.08 463.70 L 457.33 464.03 L 455.16 464.01 L 453.69 463.69 L 452.73 463.18 L 452.13 462.49 L 451.92 461.60 L 452.06 460.52 L 452.66 459.14 L 453.90 457.37 L 455.77 455.32 L 458.36 452.98 L 461.83 450.30 L 467.41 446.61 L 474.23 442.79 L 481.31 439.47 L 487.56 437.08 L 491.75 435.83 L 495.17 435.08 L 497.92 434.75 L 500.08 434.78 L 501.55 435.09 L 502.51 435.61 L 503.11 436.30 Z" fill="#585449" fill-rule="nonzero" node-id="201" stroke-linecap="butt" stroke-width="1" target-height="29.280762" target-width="51.397522" target-x="451.92328" target-y="434.75165"></path><path d="M 426.00 776.41 L 436.92 776.31 L 437.05 790.87 L 426.13 790.96 Z" fill="#fee4c3" fill-rule="nonzero" node-id="203" stroke-linecap="butt" stroke-width="1" target-height="14.650574" target-width="11.045349" target-x="426.001" target-y="776.3136"></path><path d="M 451.84 790.31 C 452.75 795.25 450.34 798.65 442.44 800.12 C 434.54 801.58 426.09 803.15 423.31 798.12 C 423.43 798.34 420.85 794.87 425.22 788.51 C 425.22 788.51 431.25 791.09 437.74 786.19 C 444.98 786.26 451.15 786.63 451.84 790.31 Z" fill="#7b7b7b" fill-rule="nonzero" node-id="205" stroke="none" target-height="15.365112" target-width="29.355621" target-x="422.67694" target-y="786.187"></path><path d="M 472.52 773.62 L 483.43 773.58 L 483.50 788.13 L 472.58 788.18 Z" fill="#fee4c3" fill-rule="nonzero" node-id="207" stroke-linecap="butt" stroke-width="1" target-height="14.602295" target-width="10.980804" target-x="472.516" target-y="773.5753"></path><path d="M 499.13 788.49 C 500.03 793.43 496.76 795.96 488.85 797.40 C 480.94 798.83 472.49 800.36 469.73 795.31 C 469.85 795.53 467.29 792.06 471.69 785.71 C 471.69 785.71 477.70 788.32 484.21 783.45 C 491.45 783.55 498.47 784.81 499.13 788.49 Z" fill="#7b7b7b" fill-rule="nonzero" node-id="209" stroke="none" target-height="15.3349" target-width="30.164734" target-x="469.10712" target-y="783.445"></path><path d="M 413.34 621.69 C 414.15 651.50 415.16 669.68 416.98 703.14 C 418.81 736.60 419.79 750.73 422.75 781.22 L 444.77 780.97 L 449.79 706.86 C 451.61 682.69 453.43 632.57 453.43 632.57 C 453.43 632.57 458.90 671.54 462.54 706.86 C 466.19 742.18 469.10 780.90 469.10 780.90 L 489.81 780.63 C 489.81 780.63 493.52 751.47 493.52 703.14 C 493.52 654.81 493.52 621.70 493.52 621.70 L 413.34 621.69 Z" fill="#dcdcdc" fill-rule="nonzero" node-id="211" stroke="none" target-height="159.52502" target-width="80.18399" target-x="413.338" target-y="621.693"></path><path d="M 487.29 456.03 C 490.70 453.81 493.48 456.94 497.58 462.07 C 501.68 467.21 505.17 473.27 501.49 476.21 C 497.80 479.16 490.61 476.86 486.51 471.73 C 472.72 466.46 475.38 451.15 487.29 456.03 Z" fill="url(#paint10_linear_1515_110877)" fill-rule="nonzero" node-id="213" stroke="none" target-height="22.424469" target-width="25.802002" target-x="477.22266" target-y="455.07483"></path><path d="M 388.69 625.60 C 384.86 624.24 385.65 620.13 387.25 613.75 C 388.85 607.38 391.55 600.93 396.12 602.07 C 400.70 603.22 403.24 610.33 401.64 616.70 C 405.82 630.86 392.03 638.03 388.69 625.60 Z" fill="url(#paint11_linear_1515_110877)" fill-rule="nonzero" node-id="215" stroke="none" target-height="29.9953" target-width="16.492004" target-x="385.93982" target-y="601.973"></path><path d="M 491.43 548.05 C 491.54 551.13 491.67 554.27 491.86 557.46 C 493.08 574.62 495.13 592.38 496.34 602.86 C 496.93 607.93 497.31 611.29 497.31 612.03 C 497.31 614.26 497.61 615.87 497.85 617.13 C 498.19 618.97 498.39 620.05 497.31 621.13 C 455.47 641.14 413.63 630.23 411.82 626.59 C 410.88 624.71 410.85 610.66 411.57 593.78 C 407.69 602.74 405.50 608.29 402.77 619.95 C 402.76 619.33 397.44 614.78 386.47 616.34 C 384.07 608.92 383.90 603.61 389.76 579.17 C 395.26 556.30 411.57 520.63 423.65 510.44 C 433.02 502.53 436.86 501.56 444.01 506.05 C 444.46 507.05 444.83 508.07 445.11 509.12 C 448.46 510.81 452.90 511.99 459.11 511.99 L 459.20 511.97 C 463.24 511.15 468.22 510.14 470.03 506.53 C 473.74 505.39 476.77 505.10 479.27 505.54 C 484.01 505.54 489.10 506.51 491.86 508.35 C 497.31 511.99 504.59 510.17 508.23 506.53 C 510.05 502.89 508.23 499.25 504.59 495.62 C 500.95 491.98 490.04 479.24 490.04 475.61 C 490.04 472.70 497.31 468.33 500.95 466.51 C 511.26 474.39 531.88 492.71 531.88 502.89 C 533.65 508.22 533.70 542.99 491.43 548.05 Z M 402.76 619.99 C 402.77 619.98 402.77 619.96 402.77 619.95 L 402.76 619.99 Z" fill="url(#paint12_linear_1515_110877)" fill-rule="evenodd" node-id="217" stroke="none" target-height="166.3374" target-width="147.52005" target-x="384.9122" target-y="466.511"></path><path d="M 471.58 506.69 C 471.58 506.69 469.85 504.93 468.07 504.93 C 458.45 514.45 447.56 507.83 443.07 503.16 C 442.90 502.98 441.29 503.16 439.50 504.93 C 455.21 519.07 467.41 512.00 471.58 506.69 Z" fill="#fb955b" fill-rule="nonzero" node-id="219" stroke="none" target-height="10.136597" target-width="32.074005" target-x="439.503" target-y="503.101"></path><path d="M 385.01 477.47 C 381.58 479.69 379.51 482.40 378.85 485.65 C 378.15 488.86 378.88 492.14 381.07 495.54 L 385.95 492.39 C 384.63 490.35 384.03 488.50 384.15 486.84 C 384.21 484.89 385.32 483.25 387.42 481.91 C 389.09 480.83 390.74 480.43 392.26 480.76 C 393.75 481.12 395.02 482.07 396.07 483.70 C 396.85 484.91 397.10 486.32 396.95 487.93 L 396.73 489.32 C 395.50 493.74 394.96 496.78 395.19 498.47 C 395.32 500.10 396.00 501.76 397.11 503.49 L 397.62 504.27 L 402.59 501.07 L 402.08 500.28 C 401.36 499.17 400.94 497.99 400.85 496.73 C 400.73 495.63 400.84 494.37 401.24 493.06 C 402.20 489.75 402.72 487.70 402.81 486.92 C 403.01 484.68 402.39 482.39 400.92 480.11 C 399.13 477.32 396.76 475.69 393.85 475.26 C 390.92 474.79 387.99 475.55 385.01 477.47 Z M 401.70 505.20 C 400.77 505.80 400.11 506.61 399.88 507.68 C 399.62 508.71 399.80 509.71 400.43 510.68 C 401.03 511.61 401.87 512.19 402.94 512.42 C 404.00 512.66 405.05 512.44 405.98 511.84 C 406.91 511.24 407.54 510.38 407.80 509.36 C 408.03 508.29 407.89 507.26 407.26 506.28 C 406.63 505.31 405.80 504.72 404.76 504.54 C 403.69 504.31 402.67 504.57 401.70 505.20 Z" fill="url(#paint13_linear_1515_110877)" fill-rule="nonzero" node-id="221" stroke="none" target-height="37.308807" target-width="29.265045" target-x="378.5905" target-y="475.137"></path></g></svg>