<svg xmlns="http://www.w3.org/2000/svg" fill="none" viewBox="0 0 1024 1024" height="1024" width="1024">
<g clip-path="url(#clip0_1515_110953)">
<ellipse fill="url(#paint0_linear_1515_110953)" ry="127.5" rx="467" cy="762.5" cx="506"></ellipse>
<path fill="url(#paint1_linear_1515_110953)" d="M230.457 615.502C230.457 615.502 230.233 614.922 229.928 615.542C227.184 621.122 202.334 681.566 200.362 728.218C200.362 728.218 196.215 755.02 230.965 754.665C259.973 754.37 259.2 729.662 259.099 721.337C258.702 687.573 230.457 615.502 230.457 615.502Z"></path>
<path fill="url(#paint2_linear_1515_110953)" d="M229.664 784.343C229.105 784.343 228.647 783.886 228.647 783.327V631.754C228.647 631.195 229.105 630.737 229.664 630.737C230.223 630.737 230.68 631.195 230.68 631.754V783.327C230.68 783.896 230.223 784.343 229.664 784.343Z"></path>
<path fill="url(#paint3_linear_1515_110953)" d="M869.35 810.661C876.541 808.4 883.517 805.446 889.874 797.176C891.178 795.482 892.404 793.311 891.689 791.283C891.151 789.757 889.594 788.778 888.013 788.529C887.424 788.442 886.827 788.426 886.234 788.48H886.228C885.316 788.574 884.415 788.754 883.536 789.015L883.285 789.089C879.09 790.299 875.093 792.13 871.425 794.524C871.093 794.738 870.698 794.833 870.306 794.792C869.914 794.75 869.548 794.576 869.266 794.296C868.984 794.017 868.804 793.649 868.754 793.252C868.704 792.855 868.789 792.453 868.993 792.111C869.367 791.491 869.803 790.911 870.292 790.38C871.015 789.613 871.807 788.916 872.657 788.299C873.788 787.462 874.994 786.715 876.174 785.951C880.562 783.116 884.719 779.929 888.605 776.42C891.378 773.913 894.091 771.131 895.409 767.607C896.015 765.986 896.291 764.117 895.568 762.547C894.376 759.968 890.999 759.245 888.237 759.78C883.398 760.721 879.532 764.32 876.104 767.908C873.261 770.889 870.075 774.189 865.99 774.372C865.294 774.439 864.594 774.296 863.977 773.963C862.812 773.247 862.512 771.588 862.927 770.271C863.343 768.953 864.304 767.901 865.231 766.89C870.623 761.021 875.928 754.916 879.429 747.725C882.93 740.534 884.481 732.044 882.048 724.409C881.335 722.177 880.263 720.005 878.591 718.383C876.919 716.762 874.575 715.745 872.28 716.056C869.153 716.473 866.798 719.15 865.213 721.915C859.768 731.401 860.101 743.025 858.567 753.891C858.138 756.933 857.514 760.053 855.728 762.557C855.563 762.798 855.35 763 855.101 763.15C853.632 764.013 852.313 762.272 851.761 760.795C849.583 754.95 849.038 748.265 845.139 743.427C843.65 741.585 841.544 740.046 839.197 740.061C836.331 740.081 833.877 742.51 833.04 745.292C832.204 748.074 832.705 751.096 833.601 753.858C835.264 758.98 838.245 763.582 841.759 767.627C843.61 769.763 845.705 771.92 846.261 774.706C846.431 775.653 846.36 776.628 846.054 777.539C845.748 778.45 845.218 779.267 844.513 779.912C844.184 780.202 843.801 780.423 843.386 780.561C842.971 780.699 842.533 780.75 842.098 780.713C841.157 780.626 840.306 780.139 839.484 779.666C839.139 779.467 838.794 779.265 838.447 779.067C837.077 778.276 835.707 777.483 834.336 776.69C830.851 774.674 826.646 772.614 823.018 774.35C821.167 775.238 819.954 776.983 819.383 778.986C818.872 780.804 818.872 782.73 819.383 784.548C820.464 788.328 827.276 798.848 830.086 801.561C833.368 804.729 844.748 818.398 869.35 810.661Z"></path>
<path fill="url(#paint4_linear_1515_110953)" d="M692.939 251.147C719.171 247.732 740.415 254.755 756.672 272.216C773.14 289.649 783.729 316.453 788.438 352.628C793.12 388.591 789.746 417.213 778.317 438.493C767.1 459.746 748.376 472.079 722.144 475.494C695.912 478.909 674.548 471.794 658.052 454.149C641.768 436.477 631.285 409.659 626.603 373.696C621.894 337.521 625.162 308.913 636.407 287.872C647.863 266.803 666.707 254.562 692.939 251.147ZM697.772 288.274C690.579 289.21 685.17 292.281 681.545 297.486C677.92 302.69 675.752 310.825 675.041 321.889C674.542 332.926 675.531 347.964 678.01 367.004C680.488 386.043 683.395 400.939 686.731 411.692C690.251 422.205 694.43 429.514 699.267 433.617C704.103 437.72 710.118 439.304 717.311 438.367C724.503 437.431 729.926 434.466 733.579 429.473C737.204 424.268 739.266 416.147 739.766 405.11C740.449 393.834 739.538 378.571 737.032 359.32C734.526 340.069 731.513 325.187 727.993 314.673C724.657 303.921 720.584 296.599 715.775 292.707C710.965 288.815 704.964 287.337 697.772 288.274Z"></path>
<path fill="url(#paint5_linear_1515_110953)" d="M522.426 272.113C548.619 275.814 567.223 288.246 578.237 309.408C589.463 330.601 592.523 359.257 587.42 395.378C582.346 431.288 571.465 457.975 554.777 475.439C538.301 492.933 516.966 499.829 490.773 496.128C464.58 492.427 445.886 479.874 434.69 458.471C423.706 437.097 420.751 408.455 425.825 372.545C430.929 336.424 441.704 309.722 458.15 292.44C474.808 275.188 496.233 268.412 522.426 272.113ZM517.188 309.185C510.006 308.17 503.974 309.688 499.093 313.738C494.212 317.788 489.954 325.05 486.319 335.525C482.896 346.029 479.841 360.787 477.155 379.798C474.469 398.809 473.3 413.941 473.649 425.194C474.239 436.266 476.318 444.423 479.886 449.668C483.454 454.912 488.829 458.041 496.011 459.056C503.193 460.071 509.21 458.659 514.062 454.82C518.943 450.769 523.095 443.492 526.519 432.988C530.183 422.302 533.373 407.348 536.089 388.126C538.806 368.903 539.869 353.756 539.278 342.685C538.929 331.432 536.956 323.289 533.358 318.256C529.76 313.223 524.37 310.199 517.188 309.185Z"></path>
<path fill="url(#paint6_linear_1515_110953)" d="M344.991 266.226L269.227 286.384L280.91 330.297C289.393 323.183 299.098 318.173 310.025 315.266C321.57 312.194 332.591 312.131 343.088 315.078C353.585 318.025 362.782 323.967 370.679 332.903C378.575 341.84 384.389 353.318 388.118 367.337C392.013 381.974 392.067 395.868 388.28 409.017C384.645 421.905 377.363 433.114 366.432 442.645C355.708 452.121 342.203 459.025 325.916 463.359C297.672 470.873 271.681 466.53 247.944 450.328L268.411 417.73C283.315 428.114 298.601 431.221 314.27 427.052C324.99 424.2 332.386 418.811 336.458 410.884C340.737 402.902 341.285 392.932 338.104 380.975C331.905 357.679 319.014 348.636 299.428 353.847C295.305 354.944 291.449 356.632 287.862 358.911C284.219 360.984 280.383 363.992 276.354 367.933L243.266 376.737L213.234 263.864L341.26 229.801L344.991 266.226Z"></path>
<path fill="#B8D9F6" d="M314 617.18L525.769 740.668V802.966L314 679.512V617.214V617.18Z"></path>
<path fill="#5CA8EA" d="M332.163 645.698L467.957 725.301V735.372L332.163 655.77V645.733V645.698ZM332.163 666.533L467.957 746.136V756.208L332.163 676.605V666.568V666.533ZM480.515 731.877L505.495 746.863V775.035L480.515 760.084V732.05V731.877Z"></path>
<path fill="#99C9F2" d="M710.275 633.688L525.769 740.668V802.965L710.275 695.19V633.688Z"></path>
<path fill="#E0EFFB" d="M710.275 633.688L497.365 512L314 617.179L525.769 740.425L710.275 633.688Z"></path>
<ellipse fill-opacity="0.1" fill="#7D7D7D" ry="15.5" rx="56.5" cy="787.5" cx="402.5"></ellipse>
<path fill="url(#paint7_linear_1515_110953)" d="M485.143 558.513L506.188 561.832L502.818 583.205L481.772 579.887L485.143 558.513Z"></path>
<path fill="url(#paint8_linear_1515_110953)" d="M488.15 565.889C476.814 562.734 470.576 549.571 474.216 536.489C477.857 523.407 489.998 515.359 501.334 518.513C512.671 521.668 518.909 534.831 515.268 547.913C511.628 560.996 499.486 569.044 488.15 565.889Z"></path>
<path fill="url(#paint9_linear_1515_110953)" d="M501.023 546.452C501.023 546.452 501.023 546.452 501.023 546.452C501.023 546.452 501.023 546.452 501.023 546.452C494.337 541.307 487.644 537.375 482.891 534.583C479.191 532.41 476.667 530.927 476.238 530.1C475.537 528.752 478.147 517.938 486.052 513.23C487.596 512.091 489.366 511.137 491.274 510.327C514.636 502.585 526.906 520.873 528.571 523.356C528.674 523.509 528.736 523.602 528.758 523.625C528.776 523.879 528.792 524.132 528.807 524.383C529.992 526.03 530.734 527.376 531.078 528.001C531.196 528.216 531.268 528.346 531.294 528.373C532.458 549.786 525.355 556.381 516.986 561.153C511.054 564.295 506.932 562.781 506.218 562.519L506.218 562.519C506.132 562.487 506.096 562.474 506.112 562.489C506.112 562.489 502.905 560.423 502.791 557.112C505.266 558.719 512.678 556.228 511.827 548.06C509.375 541.636 504.238 544.857 501.906 546.319C501.661 546.473 501.447 546.607 501.27 546.708C501.202 546.616 501.132 546.523 501.06 546.43C501.048 546.438 501.037 546.444 501.026 546.451C501.025 546.452 501.025 546.452 501.024 546.453C501.024 546.453 501.024 546.453 501.023 546.452Z" clip-rule="evenodd" fill-rule="evenodd"></path>
<path fill="#585449" d="M476.439 524.634C487.001 531.383 490.737 533.673 503.903 542.815C524.023 556.786 525.881 556.374 530.751 548.728C539.075 533.297 535.452 517.05 521.49 509.518C507.527 501.986 485.507 502.69 476.439 524.634Z"></path>
<ellipse fill="#585449" transform="matrix(-0.882825 -0.469702 -0.469702 0.882825 484.633 522.57)" ry="5.90914" rx="22.8158"></ellipse>
<ellipse fill="#FFE9CD" transform="matrix(0.824536 0.565809 0.565809 -0.824536 506.143 550.069)" ry="6.46091" rx="5.81778"></ellipse>
<rect fill="#FEE4C3" transform="matrix(-0.998297 -0.0583408 -0.0583408 0.998297 418.066 777.575)" height="12.0376" width="9.02823"></rect>
<path fill="#7B7B7B" d="M396.482 794.221C396.988 798.345 402.013 798.09 408.612 797.281C415.21 796.471 422.263 795.605 423.206 790.941C423.162 791.146 424.333 787.771 419.303 783.841C419.303 783.841 415.189 787.377 408.849 785.124C403.161 786.985 396.105 791.149 396.482 794.221Z"></path>
<rect fill="#FEE4C3" transform="matrix(-0.998547 -0.0538867 -0.0538867 0.998547 389.083 761.053)" height="12.0376" width="9.02823"></rect>
<path fill="#7B7B7B" d="M366.014 779.263C366.575 783.38 371.596 783.059 378.183 782.162C384.771 781.265 391.811 780.306 392.693 775.631C392.651 775.835 393.778 772.446 388.696 768.582C388.696 768.582 384.63 772.173 378.26 770.003C372.597 771.94 365.597 776.196 366.014 779.263Z"></path>
<path fill="#D5D5D5" d="M494.611 673.783C494.611 673.783 488.016 698.116 414.804 696.87C414.804 696.87 410.724 724.748 392.188 762.75L379.032 764.493L390.807 690.867C391.311 687.689 392.617 684.691 394.604 682.157C396.591 679.622 399.193 677.633 402.164 676.379C416.201 670.499 461.181 662.945 461.181 662.945L494.611 673.783Z"></path>
<path fill="#DCDCDC" d="M504.947 672.035C504.947 672.035 506.572 706.295 432.131 712.518C432.131 712.518 432.131 741.927 419.355 781.562L407.216 782.218L405.993 707.659C405.915 704.428 406.662 701.231 408.162 698.37C409.663 695.508 411.868 693.077 414.569 691.307C427.267 682.986 470.155 667.377 470.155 667.377L504.947 672.035Z"></path>
<path fill="url(#paint10_linear_1515_110953)" d="M408.328 648.926C409.32 652.144 412.745 651.63 418.07 650.539C423.394 649.448 428.823 647.447 428.04 643.624C427.257 639.802 421.47 637.448 416.146 638.539C404.6 634.581 398.181 645.721 408.328 648.926Z"></path>
<path fill="url(#paint11_linear_1515_110953)" d="M538.681 685.748C535.486 686.811 533.913 683.724 531.707 678.757C529.501 673.79 527.975 668.209 531.541 666.625C535.107 665.041 540.385 668.382 542.591 673.349C552.522 680.446 547.185 692.143 538.681 685.748Z"></path>
<path fill="url(#paint12_linear_1515_110953)" d="M483.849 570.865C483.849 570.865 472.951 572.989 467.478 579.333C458.459 589.79 451.098 608.989 451.098 608.989C451.098 608.989 449.769 614.98 443.674 622.787C437.043 631.28 435.009 632.143 435.009 632.143C435.009 632.143 426.945 635.776 424.903 635.867C422.411 635.98 416.327 637.533 416.327 637.533L418.248 649.791C418.248 649.791 434.316 650.969 446.241 647.866C455.148 645.546 460.019 636.273 460.019 636.273L483.849 570.865Z" clip-rule="evenodd" fill-rule="evenodd"></path>
<path fill="url(#paint13_linear_1515_110953)" d="M483.705 569.522C490.533 580.339 500.59 575.225 504.764 571.316C505.26 571.394 508.656 573.693 512.516 580.147C518.546 590.229 510.39 648.305 506.195 678.086C483.074 676.475 437.661 671.862 440.98 666.296C445.127 659.339 455.843 610.798 459.676 596.181C461.202 590.363 471.101 572.104 483.705 569.522Z"></path>
<path fill="url(#paint14_linear_1515_110953)" d="M529.062 591.998C527.134 584.938 516.011 577.965 507.98 573.956C506.474 576.963 504.968 596.508 509.486 604.026C514.004 611.543 515.51 640.109 517.015 643.116C518.093 645.268 524.546 667.172 530.568 676.193C532.074 675.694 537.795 673.192 542.615 673.192C542.615 670.185 538.098 646.123 535.086 640.109C533.065 636.075 533.58 608.536 529.062 591.998Z"></path>
<path fill="#FB955B" d="M480.405 570.619C480.405 570.619 482.125 569.367 483.612 569.601C490.356 578.87 500.301 574.736 504.655 571.397C504.819 571.266 506.141 571.63 507.393 573.351C492.438 583.179 483.17 575.625 480.405 570.619Z"></path>
</g>
<defs>
<linearGradient gradientUnits="userSpaceOnUse" y2="890" x2="506" y1="635" x1="506" id="paint0_linear_1515_110953">
<stop stop-color="#BDDFFF"></stop>
<stop stop-opacity="0" stop-color="white" offset="0.95892"></stop>
</linearGradient>
<linearGradient gradientUnits="userSpaceOnUse" y2="615.257" x2="229.66" y1="754.678" x1="229.66" id="paint1_linear_1515_110953">
<stop stop-color="#5FB2FF"></stop>
<stop stop-color="#DFF0FF" offset="0.7893"></stop>
</linearGradient>
<linearGradient gradientUnits="userSpaceOnUse" y2="784.347" x2="229.661" y1="630.738" x1="229.661" id="paint2_linear_1515_110953">
<stop stop-color="#DFF0FF"></stop>
<stop stop-color="#A2D2FF" offset="0.818"></stop>
</linearGradient>
<linearGradient gradientUnits="userSpaceOnUse" y2="802.968" x2="847.534" y1="720.042" x1="883.842" id="paint3_linear_1515_110953">
<stop stop-color="#C4E3FF" offset="0.365159"></stop>
<stop stop-color="#5FB2FF" offset="1"></stop>
</linearGradient>
<linearGradient gradientUnits="userSpaceOnUse" y2="308.86" x2="794.054" y1="210.192" x1="758.107" id="paint4_linear_1515_110953">
<stop stop-color="#6CB8FF"></stop>
<stop stop-color="#A2D2FF" offset="1"></stop>
</linearGradient>
<linearGradient gradientUnits="userSpaceOnUse" y2="383.119" x2="805.688" y1="278.438" x1="797.343" id="paint5_linear_1515_110953">
<stop stop-color="#6CB8FF"></stop>
<stop stop-color="#A2D2FF" offset="1"></stop>
</linearGradient>
<linearGradient gradientUnits="userSpaceOnUse" y2="183.786" x2="770.137" y1="90.6377" x1="721.648" id="paint6_linear_1515_110953">
<stop stop-color="#6CB8FF"></stop>
<stop stop-color="#A2D2FF" offset="1"></stop>
</linearGradient>
<linearGradient gradientUnits="userSpaceOnUse" y2="581.546" x2="492.295" y1="562.935" x1="495.23" id="paint7_linear_1515_110953">
<stop stop-color="#FFCDA5"></stop>
<stop stop-color="#FFE8D1" offset="1"></stop>
</linearGradient>
<linearGradient gradientUnits="userSpaceOnUse" y2="557.468" x2="468.075" y1="519.391" x1="504.489" id="paint8_linear_1515_110953">
<stop stop-color="#FFF2DF"></stop>
<stop stop-color="#FEE0BC" offset="1"></stop>
</linearGradient>
<linearGradient gradientUnits="userSpaceOnUse" y2="560.959" x2="518.385" y1="520.113" x1="489.297" id="paint9_linear_1515_110953">
<stop stop-color="#777CA7"></stop>
<stop stop-color="#636681" offset="1"></stop>
</linearGradient>
<linearGradient gradientUnits="userSpaceOnUse" y2="650.745" x2="417.067" y1="636.88" x1="414.226" id="paint10_linear_1515_110953">
<stop stop-color="#FEE4C3"></stop>
<stop stop-color="#FFD1AC" offset="1"></stop>
</linearGradient>
<linearGradient gradientUnits="userSpaceOnUse" y2="679.693" x2="532.123" y1="673.948" x1="545.057" id="paint11_linear_1515_110953">
<stop stop-color="#FEE4C3"></stop>
<stop stop-color="#FFD1AC" offset="1"></stop>
</linearGradient>
<linearGradient gradientUnits="userSpaceOnUse" y2="690.698" x2="470.138" y1="560.413" x1="436.566" id="paint12_linear_1515_110953">
<stop stop-color="#FFE194"></stop>
<stop stop-color="#FFBF84" offset="1"></stop>
</linearGradient>
<linearGradient gradientUnits="userSpaceOnUse" y2="690.698" x2="470.138" y1="560.413" x1="436.566" id="paint13_linear_1515_110953">
<stop stop-color="#FFE194"></stop>
<stop stop-color="#FFBF84" offset="1"></stop>
</linearGradient>
<linearGradient gradientUnits="userSpaceOnUse" y2="690.698" x2="470.138" y1="560.413" x1="436.566" id="paint14_linear_1515_110953">
<stop stop-color="#FFE194"></stop>
<stop stop-color="#FFBF84" offset="1"></stop>
</linearGradient>
<clipPath id="clip0_1515_110953">
<rect fill="white" height="1024" width="1024"></rect>
</clipPath>
</defs>
</svg>
