<?xml version="1.0" standalone="no"?><!DOCTYPE svg PUBLIC "-//W3C//DTD SVG 1.1//EN" "http://www.w3.org/Graphics/SVG/1.1/DTD/svg11.dtd"><svg t="1681457403238" class="icon" viewBox="0 0 1024 1024" version="1.1" xmlns="http://www.w3.org/2000/svg" p-id="1328" xmlns:xlink="http://www.w3.org/1999/xlink" width="200" height="200"><path d="M498.176 726.2208a31.9488 31.9488 0 0 0 45.1072 0.6144l263.0144-255.232a31.9488 31.9488 0 0 0-22.1184-54.8864l-143.36-0.512V104.6016h-235.52v310.7328L270.7456 414.72a31.8976 31.8976 0 0 0-22.9888 54.272z" fill="#d81e06" p-id="1329"></path><path d="M904.704 609.8944l-168.0384 0.6144-157.696 153.0368a83.3024 83.3024 0 0 1-117.4528-1.6896l-146.0224-149.8624-204.8 0.6656h-23.04v219.0336a109.568 109.568 0 0 0 109.4656 109.4144h644.1984a109.568 109.568 0 0 0 109.4656-109.4144v-221.7984z" fill="#d81e06" p-id="1330"></path></svg>