<?xml version="1.0" standalone="no"?><!DOCTYPE svg PUBLIC "-//W3C//DTD SVG 1.1//EN" "http://www.w3.org/Graphics/SVG/1.1/DTD/svg11.dtd"><svg height="1024" legacy-metrics="false" node-id="1" sillyvg="true" template-height="1024" template-width="1024" version="1.1" viewBox="0 0 1024 1024" width="1024" xmlns="http://www.w3.org/2000/svg" xmlns:xlink="http://www.w3.org/1999/xlink"><defs node-id="94"><clipPath id="clip0_1517_111459" node-id="91"><path d="M 0.00 0.00 L 1024.00 0.00 L 1024.00 1024.00 L 0.00 1024.00 Z" fill="#000000" fill-rule="nonzero" node-id="97" stroke="none" target-height="1024" target-width="1024" target-x="0" target-y="0"></path></clipPath><linearGradient gradientUnits="userSpaceOnUse" id="paint0_linear_1517_111459" node-id="34" x1="506" x2="506" y1="635" y2="890"><stop offset="0" stop-color="#bddfff"></stop><stop offset="0.95892" stop-color="#ffffff" stop-opacity="0"></stop></linearGradient><linearGradient gradientUnits="userSpaceOnUse" id="paint1_linear_1517_111459" node-id="37" x1="229.66" x2="229.66" y1="754.678" y2="615.257"><stop offset="0" stop-color="#5fb2ff"></stop><stop offset="0.7893" stop-color="#dff0ff"></stop></linearGradient><linearGradient gradientUnits="userSpaceOnUse" id="paint2_linear_1517_111459" node-id="40" x1="229.661" x2="229.661" y1="630.738" y2="784.347"><stop offset="0" stop-color="#dff0ff"></stop><stop offset="0.818" stop-color="#a2d2ff"></stop></linearGradient><linearGradient gradientUnits="userSpaceOnUse" id="paint3_linear_1517_111459" node-id="43" x1="883.842" x2="847.534" y1="720.042" y2="802.968"><stop offset="0.365159" stop-color="#c4e3ff"></stop><stop offset="1" stop-color="#5fb2ff"></stop></linearGradient><linearGradient gradientUnits="userSpaceOnUse" id="paint4_linear_1517_111459" node-id="46" x1="829.326" x2="810.395" y1="563.994" y2="550.631"><stop offset="0" stop-color="#6cb8ff"></stop><stop offset="0.656831" stop-color="#8fc8ff"></stop></linearGradient><linearGradient gradientUnits="userSpaceOnUse" id="paint5_linear_1517_111459" node-id="49" x1="827.361" x2="818.949" y1="562.297" y2="552.535"><stop offset="0" stop-color="#b2daff"></stop><stop offset="1" stop-color="#88c5ff"></stop></linearGradient><linearGradient gradientUnits="userSpaceOnUse" id="paint6_linear_1517_111459" node-id="52" x1="865.321" x2="816.79" y1="454.387" y2="521.715"><stop offset="0" stop-color="#b2daff"></stop><stop offset="1" stop-color="#88c5ff"></stop></linearGradient><linearGradient gradientUnits="userSpaceOnUse" id="paint7_linear_1517_111459" node-id="55" x1="830.099" x2="814.112" y1="481.319" y2="520.892"><stop offset="0" stop-color="#b2daff"></stop><stop offset="1" stop-color="#88c5ff"></stop></linearGradient><linearGradient gradientUnits="userSpaceOnUse" id="paint8_linear_1517_111459" node-id="58" x1="890.271" x2="854.616" y1="502.675" y2="509.66"><stop offset="0" stop-color="#b2daff"></stop><stop offset="1" stop-color="#88c5ff"></stop></linearGradient><linearGradient gradientUnits="userSpaceOnUse" id="paint9_linear_1517_111459" node-id="61" x1="620.725" x2="412.196" y1="500.93" y2="713.919"><stop offset="0" stop-color="#c9e7ff"></stop><stop offset="1" stop-color="#def1ff"></stop></linearGradient><linearGradient gradientUnits="userSpaceOnUse" id="paint10_linear_1517_111459" node-id="64" x1="581.114" x2="524.626" y1="375.23" y2="550.714"><stop offset="0" stop-color="#6cb8ff"></stop><stop offset="0.656831" stop-color="#8fc8ff"></stop></linearGradient><linearGradient gradientUnits="userSpaceOnUse" id="paint11_linear_1517_111459" node-id="67" x1="390.788" x2="390.788" y1="607.218" y2="628.305"><stop offset="0" stop-color="#ffcda5"></stop><stop offset="1" stop-color="#ffe8d1"></stop></linearGradient><linearGradient gradientUnits="userSpaceOnUse" id="paint12_linear_1517_111459" node-id="70" x1="391.764" x2="391.764" y1="561.514" y2="614.244"><stop offset="0" stop-color="#fff2df"></stop><stop offset="1" stop-color="#fee0bc"></stop></linearGradient><linearGradient gradientUnits="userSpaceOnUse" id="paint13_linear_1517_111459" node-id="73" x1="390.903" x2="390.535" y1="541.476" y2="591.349"><stop offset="0" stop-color="#483029"></stop><stop offset="0.790514" stop-color="#9f4326"></stop></linearGradient><linearGradient gradientUnits="userSpaceOnUse" id="paint14_linear_1517_111459" node-id="76" x1="496.284" x2="482.388" y1="651.092" y2="643.276"><stop offset="0" stop-color="#fee4c3"></stop><stop offset="1" stop-color="#ffd1ac"></stop></linearGradient><linearGradient gradientUnits="userSpaceOnUse" id="paint15_linear_1517_111459" node-id="79" x1="283.407" x2="297.304" y1="651.092" y2="643.276"><stop offset="0" stop-color="#fee4c3"></stop><stop offset="1" stop-color="#ffd1ac"></stop></linearGradient><linearGradient gradientUnits="userSpaceOnUse" id="paint16_linear_1517_111459" node-id="82" x1="373.758" x2="385.944" y1="731.303" y2="614.369"><stop offset="0.0403741" stop-color="#6688ff"></stop><stop offset="1" stop-color="#f094ff"></stop></linearGradient><linearGradient gradientUnits="userSpaceOnUse" id="paint17_linear_1517_111459" node-id="85" x1="723.883" x2="662.729" y1="238.815" y2="271.407"><stop offset="0" stop-color="#6cb8ff"></stop><stop offset="0.656831" stop-color="#8fc8ff"></stop></linearGradient><linearGradient gradientUnits="userSpaceOnUse" id="paint18_linear_1517_111459" node-id="88" x1="590.113" x2="534.98" y1="278.748" y2="413.403"><stop offset="0" stop-color="#6cb8ff"></stop><stop offset="0.656831" stop-color="#8fc8ff"></stop></linearGradient></defs><g clip-path="url(#clip0_1517_111459)" id="sillyvg_g_0" node-id="215"><path d="M 973.00 762.50 C 973.00 796.32 923.80 828.75 836.22 852.66 C 748.64 876.57 629.86 890.00 506.00 890.00 C 382.14 890.00 263.36 876.57 175.78 852.66 C 88.20 828.75 39.00 796.32 39.00 762.50 C 39.00 728.68 88.20 696.25 175.78 672.34 C 263.36 648.43 382.14 635.00 506.00 635.00 C 629.86 635.00 748.64 648.43 836.22 672.34 C 923.80 696.25 973.00 728.68 973.00 762.50 Z" fill="url(#paint0_linear_1517_111459)" fill-rule="nonzero" node-id="217" stroke="none" target-height="255" target-width="934" target-x="39" target-y="635"></path><path d="M 230.46 615.50 C 230.46 615.50 230.23 614.92 229.93 615.54 C 227.18 621.12 202.33 681.57 200.36 728.22 C 200.36 728.22 196.22 755.02 230.97 754.66 C 259.97 754.37 259.20 729.66 259.10 721.34 C 258.70 687.57 230.46 615.50 230.46 615.50 Z" fill="url(#paint1_linear_1517_111459)" fill-rule="nonzero" node-id="219" stroke="none" target-height="139.40588" target-width="58.88333" target-x="200.21567" target-y="615.2591"></path><path d="M 229.66 784.34 C 229.10 784.34 228.65 783.89 228.65 783.33 L 228.65 631.75 C 228.65 631.20 229.10 630.74 229.66 630.74 C 230.22 630.74 230.68 631.20 230.68 631.75 L 230.68 783.33 C 230.68 783.90 230.22 784.34 229.66 784.34 Z" fill="url(#paint2_linear_1517_111459)" fill-rule="nonzero" node-id="221" stroke="none" target-height="153.60602" target-width="2.0329895" target-x="228.647" target-y="630.737"></path><path d="M 869.35 810.66 C 876.54 808.40 883.52 805.45 889.87 797.18 C 891.18 795.48 892.40 793.31 891.69 791.28 C 891.15 789.76 889.59 788.78 888.01 788.53 C 887.42 788.44 886.83 788.43 886.23 788.48 L 886.23 788.48 C 885.32 788.57 884.41 788.75 883.54 789.01 L 883.28 789.09 C 879.09 790.30 875.09 792.13 871.42 794.52 C 871.09 794.74 870.70 794.83 870.31 794.79 C 869.91 794.75 869.55 794.58 869.27 794.30 C 868.98 794.02 868.80 793.65 868.75 793.25 C 868.70 792.86 868.79 792.45 868.99 792.11 C 869.37 791.49 869.80 790.91 870.29 790.38 C 871.01 789.61 871.81 788.92 872.66 788.30 C 873.79 787.46 874.99 786.72 876.17 785.95 C 880.56 783.12 884.72 779.93 888.61 776.42 C 891.38 773.91 894.09 771.13 895.41 767.61 C 896.01 765.99 896.29 764.12 895.57 762.55 C 894.38 759.97 891.00 759.25 888.24 759.78 C 883.40 760.72 879.53 764.32 876.10 767.91 C 873.26 770.89 870.08 774.19 865.99 774.37 C 865.29 774.44 864.59 774.30 863.98 773.96 C 862.81 773.25 862.51 771.59 862.93 770.27 C 863.34 768.95 864.30 767.90 865.23 766.89 C 870.62 761.02 875.93 754.92 879.43 747.73 C 882.93 740.53 884.48 732.04 882.05 724.41 C 881.34 722.18 880.26 720.00 878.59 718.38 C 876.92 716.76 874.58 715.75 872.28 716.06 C 869.15 716.47 866.80 719.15 865.21 721.91 C 859.77 731.40 860.10 743.02 858.57 753.89 C 858.14 756.93 857.51 760.05 855.73 762.56 C 855.56 762.80 855.35 763.00 855.10 763.15 C 853.63 764.01 852.31 762.27 851.76 760.79 C 849.58 754.95 849.04 748.26 845.14 743.43 C 843.65 741.59 841.54 740.05 839.20 740.06 C 836.33 740.08 833.88 742.51 833.04 745.29 C 832.20 748.07 832.71 751.10 833.60 753.86 C 835.26 758.98 838.25 763.58 841.76 767.63 C 843.61 769.76 845.71 771.92 846.26 774.71 C 846.43 775.65 846.36 776.63 846.05 777.54 C 845.75 778.45 845.22 779.27 844.51 779.91 C 844.18 780.20 843.80 780.42 843.39 780.56 C 842.97 780.70 842.53 780.75 842.10 780.71 C 841.16 780.63 840.31 780.14 839.48 779.67 C 839.14 779.47 838.79 779.26 838.45 779.07 C 837.08 778.28 835.71 777.48 834.34 776.69 C 830.85 774.67 826.65 772.61 823.02 774.35 C 821.17 775.24 819.95 776.98 819.38 778.99 C 818.87 780.80 818.87 782.73 819.38 784.55 C 820.46 788.33 827.28 798.85 830.09 801.56 C 833.37 804.73 844.75 818.40 869.35 810.66 Z" fill="url(#paint3_linear_1517_111459)" fill-rule="nonzero" node-id="223" stroke="none" target-height="96.933716" target-width="76.94501" target-x="819.0419" target-y="716.056"></path><path d="M 807.99 564.27 C 810.38 557.75 821.41 555.89 828.18 556.12 C 826.45 576.39 804.93 575.96 795.15 574.47 C 798.37 573.78 805.63 570.73 807.99 564.27 Z" fill="url(#paint4_linear_1517_111459)" fill-rule="nonzero" node-id="225" stroke="none" target-height="18.955566" target-width="33.035034" target-x="795.146" target-y="556.125"></path><path d="M 826.06 558.29 C 822.43 562.86 812.52 571.45 798.10 574.35" fill="none" node-id="227" stroke="url(#paint5_linear_1517_111459)" stroke-linecap="butt" stroke-width="0.3" target-height="16.063965" target-width="27.963013" target-x="798.099" target-y="558.286"></path><path d="M 884.56 452.00 C 885.46 474.49 876.31 526.18 832.50 553.04" fill="none" node-id="229" stroke="url(#paint6_linear_1517_111459)" stroke-linecap="butt" stroke-width="1" target-height="101.03998" target-width="52.073303" target-x="832.498" target-y="452"></path><path d="M 848.38 479.99 C 847.36 492.81 844.33 508.10 833.37 508.99 C 825.32 509.64 831.04 498.68 835.46 502.47 C 839.88 506.27 836.91 520.27 814.94 524.37" fill="none" node-id="231" stroke="url(#paint7_linear_1517_111459)" stroke-linecap="butt" stroke-width="1" target-height="44.378998" target-width="33.434998" target-x="814.941" target-y="479.993"></path><path d="M 897.68 504.93 C 896.02 515.63 889.21 538.49 875.24 544.32" fill="none" node-id="233" stroke="url(#paint8_linear_1517_111459)" stroke-linecap="butt" stroke-width="1" target-height="39.385986" target-width="22.439026" target-x="875.242" target-y="504.932"></path><path d="M 435.61 493.12 L 275.00 493.12 C 269.48 493.12 265.00 497.60 265.00 503.12 L 265.00 698.34 C 265.00 703.87 269.48 708.34 275.00 708.34 L 749.00 708.34 C 754.52 708.34 759.00 703.87 759.00 698.34 L 759.00 503.12 C 759.00 497.60 754.52 493.12 749.00 493.12 L 587.27 493.12 C 587.27 520.84 553.32 543.30 511.44 543.30 C 469.56 543.30 435.61 520.84 435.61 493.12 Z" fill="url(#paint9_linear_1517_111459)" fill-rule="evenodd" node-id="235" stroke="none" target-height="215.21902" target-width="494" target-x="265" target-y="493.124"></path><path d="M 365.32 366.00 C 359.80 366.00 355.32 370.48 355.32 376.00 L 355.32 496.47 L 435.61 496.47 C 435.61 524.18 469.56 546.65 511.44 546.65 C 553.32 546.65 587.27 524.18 587.27 496.47 L 668.67 496.47 L 668.67 376.00 C 668.67 370.48 664.20 366.00 658.67 366.00 L 365.32 366.00 Z" fill="url(#paint10_linear_1517_111459)" fill-rule="evenodd" node-id="237" stroke="none" target-height="180.65002" target-width="313.34998" target-x="355.325" target-y="366"></path><path d="M 357.56 367.12 L 357.56 496.47 L 268.35 496.47 L 357.56 367.12 Z" fill="#a0d1ff" fill-rule="nonzero" node-id="239" stroke="none" target-height="129.35501" target-width="89.20999" target-x="268.346" target-y="367.115"></path><path d="M 666.44 367.12 L 666.44 496.47 L 755.65 496.47 L 666.44 367.12 Z" fill="#a0d1ff" fill-rule="nonzero" node-id="241" stroke="none" target-height="129.35501" target-width="89.21002" target-x="666.444" target-y="367.115"></path><path d="M 444.00 750.50 C 444.00 759.06 418.70 766.00 387.50 766.00 C 356.30 766.00 331.00 759.06 331.00 750.50 C 331.00 741.94 356.30 735.00 387.50 735.00 C 418.70 735.00 444.00 741.94 444.00 750.50 Z" fill="#7d7d7d" fill-opacity="0.15" fill-rule="nonzero" node-id="243" stroke="none" target-height="31" target-width="113" target-x="331" target-y="735"></path><path d="M 402.90 604.09 L 378.68 604.09 L 378.68 628.30 L 402.90 628.30 L 402.90 604.09 Z" fill="url(#paint11_linear_1517_111459)" fill-rule="nonzero" node-id="245" stroke="none" target-height="24.21698" target-width="24.21701" target-x="378.68" target-y="604.088"></path><path d="M 416.18 598.01 C 418.21 598.83 420.96 596.75 422.33 593.36 C 423.70 589.97 423.16 586.56 421.13 585.74 C 419.11 584.92 416.35 587.00 414.98 590.39 C 413.62 593.78 414.15 597.19 416.18 598.01 Z" fill="#fee0bc" fill-rule="nonzero" node-id="247" stroke="none" target-height="12.603943" target-width="8.852234" target-x="414.2301" target-y="585.57306"></path><path d="M 365.81 597.97 C 363.80 598.83 361.01 596.79 359.58 593.43 C 358.16 590.07 358.63 586.65 360.64 585.79 C 362.66 584.94 365.45 586.97 366.88 590.33 C 368.30 593.70 367.83 597.12 365.81 597.97 Z" fill="#fee0bc" fill-rule="nonzero" node-id="249" stroke="none" target-height="12.550598" target-width="8.915741" target-x="358.77188" target-y="585.6067"></path><path d="M 391.76 614.24 C 406.54 614.24 418.52 602.44 418.52 587.88 C 418.52 573.32 406.54 561.51 391.76 561.51 C 376.99 561.51 365.01 573.32 365.01 587.88 C 365.01 602.44 376.99 614.24 391.76 614.24 Z" fill="url(#paint12_linear_1517_111459)" fill-rule="nonzero" node-id="251" stroke="none" target-height="52.73004" target-width="53.511017" target-x="365.008" target-y="561.514"></path><path d="M 399.28 545.96 C 400.42 544.66 401.07 543.12 401.07 541.48 C 401.07 536.79 395.76 533.00 389.21 533.00 C 382.65 533.00 377.34 536.79 377.34 541.48 C 377.34 543.39 378.23 545.16 379.74 546.58 C 357.42 553.20 353.96 580.00 365.11 589.75 C 369.89 575.40 412.97 575.40 417.75 589.75 C 426.38 578.25 423.34 551.18 399.28 545.96 Z" fill="url(#paint13_linear_1517_111459)" fill-rule="evenodd" node-id="253" stroke="none" target-height="56.75299" target-width="63.153595" target-x="358.98956" target-y="533"></path><path d="M 492.61 641.49 C 490.92 641.49 484.82 638.94 481.82 644.28 C 478.82 649.62 476.52 655.72 480.35 657.87 C 484.18 660.02 491.31 656.84 494.31 651.51 C 506.20 644.60 505.32 633.01 492.61 641.49 Z" fill="url(#paint14_linear_1517_111459)" fill-rule="nonzero" node-id="255" stroke="none" target-height="20.048157" target-width="24.324982" target-x="478.36115" target-y="638.5072"></path><path d="M 285.57 640.39 C 287.26 640.40 293.36 637.85 296.36 643.18 C 299.36 648.52 301.66 654.62 297.83 656.77 C 294.00 658.93 287.11 656.99 284.11 651.66 C 272.22 644.75 272.86 631.92 285.57 640.39 Z" fill="url(#paint15_linear_1517_111459)" fill-rule="nonzero" node-id="257" stroke="none" target-height="19.961914" target-width="24.221436" target-x="275.59662" target-y="637.64734"></path><path d="M 402.77 617.78 C 402.24 618.38 401.72 618.93 401.19 619.43 C 399.40 620.98 396.86 622.42 393.94 623.25 C 387.52 624.30 381.77 619.61 379.04 616.06 C 378.76 616.06 377.59 616.55 375.81 617.85 L 375.75 617.78 C 373.98 618.45 372.30 619.42 370.72 620.61 C 361.40 624.62 344.36 638.22 330.10 670.31 C 328.35 665.92 322.05 661.99 314.97 657.57 C 308.37 653.45 301.11 648.91 296.20 643.19 C 289.42 647.25 285.46 650.53 284.33 651.66 C 295.07 668.61 318.08 697.43 328.41 697.43 C 338.31 697.43 345.89 693.39 350.83 687.66 C 349.19 707.91 347.21 729.16 345.24 734.14 C 342.77 740.37 386.70 740.93 412.55 738.41 C 425.36 738.27 434.47 737.13 433.28 734.14 C 431.30 729.14 429.32 707.80 427.68 687.50 C 432.61 693.31 440.25 697.43 450.24 697.43 C 460.56 697.43 483.57 668.61 494.31 651.66 C 493.18 650.53 489.22 647.25 482.44 643.19 C 477.54 648.91 470.27 653.45 463.68 657.57 C 456.60 661.99 450.30 665.92 448.54 670.31 C 434.14 637.91 416.91 624.36 407.65 620.49 C 406.39 619.56 405.07 618.76 403.68 618.15 C 403.22 617.82 402.98 617.78 402.78 617.78 L 402.77 617.78 Z" fill="url(#paint16_linear_1517_111459)" fill-rule="evenodd" node-id="259" stroke="none" target-height="123.74481" target-width="209.97498" target-x="284.334" target-y="616.064"></path><path d="M 406.02 619.52 C 406.02 619.52 404.33 617.88 402.64 617.88 C 393.52 626.70 383.19 620.57 378.94 616.25 C 378.78 616.08 377.25 616.25 375.56 617.88 C 390.45 630.97 402.07 624.43 406.02 619.52 Z" fill="#5b7efb" fill-rule="nonzero" node-id="261" stroke="none" target-height="9.382507" target-width="30.466003" target-x="375.555" target-y="616.19257"></path><path d="M 348.56 750.41 L 345.90 738.84 L 332.45 741.54 L 334.48 751.62 L 348.56 750.41 Z" fill="#fee4c3" fill-rule="nonzero" node-id="263" stroke="none" target-height="12.781006" target-width="16.105988" target-x="332.453" target-y="738.844"></path><path d="M 336.61 740.27 C 333.94 744.43 335.65 750.00 336.83 752.27 C 333.47 755.76 319.41 759.16 319.41 750.42 C 319.41 741.84 328.00 738.72 336.61 740.27 Z" fill="#4f538f" fill-rule="nonzero" node-id="265" stroke="none" target-height="16.010803" target-width="17.418" target-x="319.414" target-y="739.92126"></path><path d="M 425.51 750.41 L 428.17 738.84 L 441.62 741.54 L 439.60 751.62 L 425.51 750.41 Z" fill="#fee4c3" fill-rule="nonzero" node-id="267" stroke="none" target-height="12.781006" target-width="16.105011" target-x="425.513" target-y="738.844"></path><path d="M 437.46 740.27 C 440.13 744.43 438.42 750.00 437.24 752.27 C 440.60 755.76 454.66 759.16 454.66 750.42 C 454.66 741.84 446.07 738.72 437.46 740.27 Z" fill="#4f538f" fill-rule="nonzero" node-id="269" stroke="none" target-height="16.010742" target-width="17.418" target-x="437.238" target-y="739.92126"></path><path d="M 436.35 702.27 C 436.35 702.27 455.05 698.79 461.00 712.25 C 465.35 727.99 449.55 731.94 449.55 731.94 L 437.19 734.36 L 431.81 752.57 L 388.10 743.99 L 344.36 752.57 L 338.97 734.35 L 326.74 731.95 C 326.74 731.95 309.24 725.35 315.30 712.27 C 322.97 695.72 339.93 702.29 339.93 702.29 L 388.08 715.95 L 436.35 702.27 Z" fill="#d1e2ff" fill-rule="nonzero" node-id="271" stroke="none" target-height="51.532593" target-width="147.73605" target-x="314.02097" target-y="701.0374"></path><path d="M 741.62 249.41 L 698.38 297.05 C 697.83 297.64 697.12 297.92 696.26 297.89 C 695.82 297.86 695.39 297.73 695.00 297.48 C 694.75 297.32 694.51 297.07 694.28 296.77 L 683.67 281.61 C 683.09 280.78 682.03 280.43 681.07 280.73 L 667.68 285.05 C 666.92 285.32 666.18 285.21 665.47 284.75 C 665.17 284.56 664.94 284.35 664.78 284.12 C 664.45 283.67 664.27 283.18 664.25 282.62 C 664.23 282.07 664.36 281.56 664.66 281.09 L 671.57 270.36 C 672.15 269.46 673.01 268.80 674.03 268.46 L 726.16 251.50 L 669.04 259.63 C 668.61 259.69 668.18 259.51 667.93 259.15 L 658.24 245.28 C 657.59 244.41 657.53 243.47 658.09 242.47 C 658.63 241.52 659.45 241.07 660.52 241.13 L 739.79 245.00 C 740.28 245.01 740.71 245.15 741.10 245.40 C 741.57 245.70 741.90 246.11 742.11 246.60 C 742.53 247.65 742.35 248.59 741.62 249.41 Z" fill="url(#paint17_linear_1517_111459)" fill-rule="nonzero" node-id="273" stroke="none" target-height="56.76001" target-width="84.59949" target-x="657.7315" target-y="241.134"></path><path d="M 646.00 273.00 C 635.00 267.00 562.50 273.00 538.00 347.50 C 524.06 389.90 504.00 424.00 446.00 417.00" fill="none" node-id="275" stroke="url(#paint18_linear_1517_111459)" stroke-dasharray="2 2" stroke-linecap="butt" stroke-width="3" target-height="146.63281" target-width="200" target-x="446" target-y="271.25653"></path></g></svg>