<?xml version="1.0" standalone="no"?><!DOCTYPE svg PUBLIC "-//W3C//DTD SVG 1.1//EN" "http://www.w3.org/Graphics/SVG/1.1/DTD/svg11.dtd"><svg t="1681457391414" class="icon" viewBox="0 0 1024 1024" version="1.1" xmlns="http://www.w3.org/2000/svg" p-id="1178" xmlns:xlink="http://www.w3.org/1999/xlink" width="200" height="200"><path d="M815.9232 156.9792h-599.04A117.0944 117.0944 0 0 0 99.84 274.0736v476.16a117.0944 117.0944 0 0 0 117.0944 117.0944h599.04a117.0944 117.0944 0 0 0 117.0944-117.0944v-476.16a117.0944 117.0944 0 0 0-117.1456-117.0944z m6.0416 191.9488l-267.008 175.0016a61.44 61.44 0 0 1-66.048 0l-266.9568-174.08a20.48 20.48 0 0 1 22.3744-34.304l266.9568 174.08a20.48 20.48 0 0 0 21.248 0l266.9568-175.0016a20.48 20.48 0 1 1 22.4768 34.2528z" fill="#9088FF" p-id="1179"></path></svg>