<?xml version="1.0" standalone="no"?><!DOCTYPE svg PUBLIC "-//W3C//DTD SVG 1.1//EN" "http://www.w3.org/Graphics/SVG/1.1/DTD/svg11.dtd"><svg t="1681457446367" class="icon" viewBox="0 0 1024 1024" version="1.1" xmlns="http://www.w3.org/2000/svg" p-id="1867" xmlns:xlink="http://www.w3.org/1999/xlink" width="200" height="200"><path d="M766.1568 75.6736H258.6624a142.7968 142.7968 0 0 0-142.7968 142.7968v664.1152a39.2704 39.2704 0 0 0 63.5904 30.72L312.32 808.96a26.5728 26.5728 0 0 1 34.6624 1.536l135.5264 127.2832a39.3216 39.3216 0 0 0 54.3232-0.512l129.8432-126.5664a26.5728 26.5728 0 0 1 34.5088-2.2528l144.9984 108.032a39.2704 39.2704 0 0 0 62.7712-31.488V218.4704a142.7968 142.7968 0 0 0-142.7968-142.7968zM646.0928 552.96a20.48 20.48 0 0 1 0 40.96h-114.8416v76.3904a20.48 20.48 0 0 1-40.96 0V593.92H375.3984a20.48 20.48 0 0 1 0-40.96h114.8928V468.6848H375.3984a20.48 20.48 0 0 1 0-40.96h96.768l-112.64-135.3216A20.48 20.48 0 1 1 391.168 266.24l119.2448 143.36 120.0128-143.36a20.48 20.48 0 1 1 31.3856 26.2656l-113.152 135.2704h97.28a20.48 20.48 0 0 1 0 40.96h-114.688V552.96z" fill="#16930e" p-id="1868"></path></svg>