<svg xmlns="http://www.w3.org/2000/svg" xmlns:xlink="http://www.w3.org/1999/xlink"
        viewBox="0 0 64.44000244140625 50.400001525878906" width="135" height="110" >
        <path style="fill: #61DAFB;" transform="translate(-4.32 50.400000000000006)"
            d="M7.06-21.96L7.06-21.96L7.06-34.70L4.32-34.70L4.32-40.46L16.13-40.46L16.13-34.70L13.46-34.70L13.46-21.53Q13.46-19.58 14.83-18.22Q16.20-16.85 18.07-16.85L18.07-16.85L20.38-16.85L20.38-44.64L17.64-44.64L17.64-50.40L28.51-50.40L36.94-12.31L45.36-50.40L56.09-50.40L56.09-44.64L53.21-44.64L53.21-5.76L56.09-5.76L56.09 0L44.35 0L44.35-5.76L47.02-5.76L47.02-10.51L43.63-10.51L44.93-16.85L47.02-16.85L47.02-33.05L40.10 0L33.48 0L31.25-10.51L27.72-10.51L27.72-16.85L29.88-16.85L26.35-33.19L26.35-5.76L29.23-5.76L29.23 0L17.64 0L17.64-5.76L20.38-5.76L20.38-10.51L18.36-10.51Q12.82-10.51 9.94-13.57Q7.06-16.63 7.06-21.96ZM59.69-34.70L57.02-34.70L57.02-40.46L68.76-40.46L68.76-34.70L66.02-34.70L66.02-22.18Q66.02-19.80 65.38-17.68Q64.73-15.55 63.36-13.97Q61.99-12.38 59.94-11.45Q57.89-10.51 55.15-10.51L55.15-10.51L54.50-10.51L54.50-16.85L55.01-16.85Q56.95-16.85 58.32-18.22Q59.69-19.58 59.69-21.53L59.69-21.53L59.69-34.70Z">
        </path>
</svg>