<?xml version="1.0" standalone="no"?><!DOCTYPE svg PUBLIC "-//W3C//DTD SVG 1.1//EN" "http://www.w3.org/Graphics/SVG/1.1/DTD/svg11.dtd"><svg t="1681457418119" class="icon" viewBox="0 0 1024 1024" version="1.1" xmlns="http://www.w3.org/2000/svg" p-id="1525" xmlns:xlink="http://www.w3.org/1999/xlink" width="200" height="200"><path d="M961.28 407.1936L737.28 126.1056a82.5856 82.5856 0 0 0-64.6656-31.1808H338.4832a82.5856 82.5856 0 0 0-65.1264 31.7952L59.8016 400.1792a82.688 82.688 0 0 0 6.144 108.7488l387.6864 395.4176a82.688 82.688 0 0 0 117.76 0.3072l384-387.7888a82.6368 82.6368 0 0 0 5.888-109.6704z m-214.4256 117.4016L527.36 756.4288a20.48 20.48 0 0 1-14.848 6.3488 20.48 20.48 0 0 1-14.848-6.3488L281.0368 528.896a20.48 20.48 0 1 1 29.696-28.2624l201.6256 211.9168 204.8-216.1152a20.48 20.48 0 1 1 29.696 28.16z" fill="#e0620d" p-id="1526"></path></svg>